<svg width="177" height="56" viewBox="0 0 177 56" fill="none" xmlns="http://www.w3.org/2000/svg">
<g clip-path="url(#clip0_2043_208)">
<path d="M175.81 17.1673C175.68 14.8355 175.19 12.5379 174.359 10.3559C173.805 8.68611 173.165 7.04658 172.44 5.44406C169.882 3.60994 167.019 2.24555 163.985 1.41443L145.093 1.53364C142.592 1.61348 140.181 2.48121 138.201 4.01343C137.249 4.68996 136.372 5.46519 135.583 6.32627C133.976 5.79843 132.294 5.53014 130.603 5.53148C127.575 5.59241 124.58 6.17865 121.751 7.26415L120.475 7.75692C117.889 6.70779 114.296 6.16733 109.498 6.16733H108.038L104.573 6.2627C99.6851 6.40774 94.8376 7.19331 90.1536 8.59941C89.8584 8.68705 89.5716 8.80144 89.2971 8.94116C88.5039 8.14637 87.6394 7.35156 86.6639 6.50113C85.884 5.81888 84.9162 5.38939 83.888 5.2692C83.5657 4.78575 83.1634 4.36105 82.6983 4.01343C81.9294 3.43358 81.0143 3.08024 80.0559 2.99318C79.0975 2.90613 78.1338 3.08879 77.2734 3.52064L70.0005 7.23235C69.5325 7.46878 69.1043 7.77718 68.7315 8.14637C66.1049 8.07909 63.487 8.47732 60.9986 9.32268C60.7131 9.426 60.4038 9.53727 60.0866 9.67239C59.8454 9.44218 59.5794 9.23957 59.2934 9.06833L57.9927 8.27354C56.863 7.571 55.6924 6.9367 54.4872 6.37398C54.2461 5.21502 53.6135 4.17489 52.6959 3.42917C51.7784 2.68345 50.6322 2.27781 49.4508 2.28076C49.2448 2.26888 49.0383 2.26888 48.8322 2.28076C46.7701 2.53509 44.6842 2.86096 42.5428 3.27425H37.3717C36.5653 3.2733 35.77 3.46193 35.0496 3.82497C34.3291 4.18801 33.7038 4.71533 33.2237 5.36457L33.1761 5.44406H33.0571L32.3274 5.6666C32.1231 5.08858 31.8198 4.55067 31.4312 4.07701C30.7587 3.27125 29.8587 2.68821 28.8494 2.40451C27.8402 2.1208 26.7689 2.14971 25.7763 2.48741C20.5734 4.2916 18.9634 5.01487 17.972 5.6666C17.2378 6.13478 16.6019 6.74227 16.1002 7.4549C15.9646 7.46294 15.8296 7.47886 15.6958 7.50258C14.4534 7.66089 13.2957 8.21865 12.3964 9.09218C10.3493 11.2687 8.6167 13.722 7.24908 16.3805C7.24908 16.452 7.16182 16.5474 7.13009 16.6189C6.93974 17.0004 6.6225 17.6362 6.18628 18.5503C6.16475 18.583 6.14619 18.6176 6.13078 18.6536C5.62319 19.7822 5.2742 20.6088 5.07592 21.1095L5.01248 21.2764L4.89352 21.6182C3.77309 22.1538 2.88317 23.0767 2.38727 24.2172C1.8639 25.3505 1.48037 26.5436 1.24518 27.7699C1.1235 28.5105 1.16404 29.2687 1.36399 29.992C1.56395 30.7153 1.91852 31.3863 2.40312 31.9585C2.49829 32.0698 2.59346 32.1811 2.69657 32.2844C2.61726 33.262 2.56967 34.1839 2.56967 35.0423C2.57486 36.612 2.73426 38.1774 3.04554 39.7157C3.21955 40.5722 3.60753 41.3703 4.17318 42.0356C4.73884 42.7009 5.46368 43.2114 6.27985 43.5195C7.09602 43.8276 7.97685 43.9232 8.83991 43.7973C9.70297 43.6713 10.52 43.3281 11.2147 42.7996C13.6337 40.9715 14.9265 39.978 15.672 39.374C16.1003 40.7649 16.5047 41.9094 16.9013 42.9108C17.4923 44.3129 18.3488 45.5868 19.4234 46.6623L19.59 46.8451C19.9673 47.2584 20.4093 47.6074 20.8986 47.8783C22.3421 48.6731 23.4049 49.2056 24.0711 49.5076L24.317 49.611C27.0929 50.7396 30.0274 51.8205 33.2792 52.9173C34.1465 53.2108 35.0763 53.2676 35.9728 53.0818C36.8693 52.8959 37.7003 52.4742 38.3803 51.86C39.0603 51.2457 39.5648 50.4611 39.8419 49.5867C40.1191 48.7123 40.1589 47.7797 39.9572 46.8848H40.4807C42.4331 46.8624 44.3622 46.4574 46.1594 45.6926C47.8413 44.905 49.4497 43.9687 50.9657 42.8949C51.156 43.0488 51.3546 43.192 51.5605 43.3241C54.2376 45.0235 57.0944 46.4204 60.0786 47.4889C62.494 48.4388 64.962 49.2482 67.4705 49.913C71.1661 50.7836 74.9524 51.2078 78.7486 51.1767C81.5809 51.1355 84.4066 50.8884 87.2032 50.4375C89.9906 50.0648 92.751 49.5126 95.4675 48.7844C96.5495 48.4818 97.5035 47.8338 98.1848 46.9388C98.8661 46.0438 99.2375 44.9505 99.2428 43.8248C99.246 43.2456 99.1494 42.6703 98.9572 42.124C100.742 41.5199 102.645 40.9636 104.684 40.4549V40.5026L104.898 42.2909C104.977 43.0141 105.619 46.6702 110.251 47.3617C110.374 47.3854 110.499 47.4013 110.624 47.4094C111.274 47.4571 112.337 47.4809 113.622 47.4809C117.508 47.4809 119.88 47.2266 121.553 46.6066L133.267 42.2829C133.601 42.5452 133.942 42.7837 134.275 43.0062C133.291 44.1984 132.577 45.0727 132.165 45.5893C131.425 46.5172 131.025 47.6722 131.034 48.8603C131.043 50.0484 131.46 51.1972 132.215 52.1137C132.969 53.0302 134.015 53.6585 135.178 53.8932C136.34 54.1278 137.547 53.9544 138.597 53.4022C140.12 52.6111 141.682 51.8975 143.277 51.2642L148.678 49.2772C149.425 49.0067 150.101 48.567 150.651 47.9921C151.201 47.4172 151.612 46.7227 151.85 45.9628C151.898 45.8039 152.072 45.2873 152.112 45.168L152.183 45.1124L154.769 43.8566C155.808 43.4553 156.867 43.1078 157.941 42.8155C158.592 42.6683 159.208 42.3986 159.758 42.0207C161.196 40.9253 162.505 39.6694 163.66 38.2772C165.246 36.5604 166.039 35.7338 166.245 35.4874C167.129 34.7122 167.927 33.8434 168.625 32.8964C168.759 32.7882 168.886 32.6714 169.005 32.5466C170.124 31.426 171.075 30.504 171.781 29.8284C171.81 29.804 171.836 29.7774 171.861 29.749C172.627 28.912 173.295 27.9893 173.851 26.999C175.247 24.8133 175.818 23.2952 175.818 21.7533V20.2352C175.639 19.4802 175.639 18.6933 175.818 17.9383L175.81 17.1673Z" fill="#ED1C24"/>
<path d="M175.81 17.1673C175.68 14.8355 175.19 12.5379 174.359 10.3559C173.805 8.68611 173.165 7.04658 172.44 5.44406C169.882 3.60994 167.019 2.24555 163.985 1.41443L145.093 1.53364C142.592 1.61348 140.181 2.48121 138.201 4.01343C137.249 4.68996 136.372 5.46519 135.583 6.32627C133.976 5.79843 132.294 5.53014 130.603 5.53148C127.575 5.59241 124.58 6.17865 121.751 7.26415L120.475 7.75692C117.889 6.70779 114.296 6.16733 109.498 6.16733H108.038L104.573 6.2627C99.6851 6.40774 94.8376 7.19331 90.1536 8.59941C89.8584 8.68705 89.5716 8.80144 89.2971 8.94116C88.5039 8.14637 87.6394 7.35156 86.6639 6.50113C85.884 5.81888 84.9162 5.38939 83.888 5.2692C83.5657 4.78575 83.1634 4.36105 82.6983 4.01343C81.9294 3.43358 81.0143 3.08024 80.0559 2.99318C79.0975 2.90613 78.1338 3.08879 77.2734 3.52064L70.0005 7.23235C69.5325 7.46878 69.1043 7.77718 68.7315 8.14637C66.1049 8.07909 63.487 8.47732 60.9986 9.32268C60.7131 9.426 60.4038 9.53727 60.0866 9.67239C59.8454 9.44218 59.5794 9.23957 59.2934 9.06833L57.9927 8.27354C56.863 7.571 55.6924 6.9367 54.4872 6.37398C54.2461 5.21502 53.6135 4.17489 52.6959 3.42917C51.7784 2.68345 50.6322 2.27781 49.4508 2.28076C49.2448 2.26888 49.0383 2.26888 48.8322 2.28076C46.7701 2.53509 44.6842 2.86096 42.5428 3.27425H37.3717C36.5653 3.2733 35.77 3.46193 35.0496 3.82497C34.3291 4.18801 33.7038 4.71533 33.2237 5.36457L33.1761 5.44406H33.0571L32.3274 5.6666C32.1231 5.08858 31.8198 4.55067 31.4312 4.07701C30.7587 3.27125 29.8587 2.68821 28.8494 2.40451C27.8402 2.1208 26.7689 2.14971 25.7763 2.48741C20.5734 4.2916 18.9634 5.01487 17.972 5.6666C17.2378 6.13478 16.6019 6.74227 16.1002 7.4549C15.9646 7.46294 15.8296 7.47886 15.6958 7.50258C14.4534 7.66089 13.2957 8.21865 12.3964 9.09218C10.3493 11.2687 8.6167 13.722 7.24908 16.3805C7.24908 16.452 7.16182 16.5474 7.13009 16.6189C6.93974 17.0004 6.6225 17.6362 6.18628 18.5503C6.16475 18.583 6.14619 18.6176 6.13078 18.6536C5.62319 19.7822 5.2742 20.6088 5.07592 21.1095L5.01248 21.2764L4.89352 21.6182C3.77309 22.1538 2.88317 23.0767 2.38727 24.2172C1.8639 25.3505 1.48037 26.5436 1.24518 27.7699C1.1235 28.5105 1.16404 29.2687 1.36399 29.992C1.56395 30.7153 1.91852 31.3863 2.40312 31.9585C2.49829 32.0698 2.59346 32.1811 2.69657 32.2844C2.61726 33.262 2.56967 34.1839 2.56967 35.0423C2.57486 36.612 2.73426 38.1774 3.04554 39.7157C3.21955 40.5722 3.60753 41.3703 4.17318 42.0356C4.73884 42.7009 5.46368 43.2114 6.27985 43.5195C7.09602 43.8276 7.97685 43.9232 8.83991 43.7973C9.70297 43.6713 10.52 43.3281 11.2147 42.7996C13.6337 40.9715 14.9265 39.978 15.672 39.374C16.1003 40.7649 16.5047 41.9094 16.9013 42.9108C17.4923 44.3129 18.3488 45.5868 19.4234 46.6623L19.59 46.8451C19.9673 47.2584 20.4093 47.6074 20.8986 47.8783C22.3421 48.6731 23.4049 49.2056 24.0711 49.5076L24.317 49.611C27.0929 50.7396 30.0274 51.8205 33.2792 52.9173C34.1465 53.2108 35.0763 53.2676 35.9728 53.0818C36.8693 52.8959 37.7003 52.4742 38.3803 51.86C39.0603 51.2457 39.5648 50.4611 39.8419 49.5867C40.1191 48.7123 40.1589 47.7797 39.9572 46.8848H40.4807C42.4331 46.8624 44.3622 46.4574 46.1594 45.6926C47.8413 44.905 49.4497 43.9687 50.9657 42.8949C51.156 43.0488 51.3546 43.192 51.5605 43.3241C54.2376 45.0235 57.0944 46.4204 60.0786 47.4889C62.494 48.4388 64.962 49.2482 67.4705 49.913C71.1661 50.7836 74.9524 51.2078 78.7486 51.1767C81.5809 51.1355 84.4066 50.8884 87.2032 50.4375C89.9906 50.0648 92.751 49.5126 95.4675 48.7844C96.5495 48.4818 97.5035 47.8338 98.1848 46.9388C98.8661 46.0438 99.2375 44.9505 99.2428 43.8248C99.246 43.2456 99.1494 42.6703 98.9572 42.124C100.742 41.5199 102.645 40.9636 104.684 40.4549V40.5026L104.898 42.2909C104.977 43.0141 105.619 46.6702 110.251 47.3617C110.374 47.3854 110.499 47.4013 110.624 47.4094C111.274 47.4571 112.337 47.4809 113.622 47.4809C117.508 47.4809 119.88 47.2266 121.553 46.6066L133.267 42.2829C133.601 42.5452 133.942 42.7837 134.275 43.0062C133.291 44.1984 132.577 45.0727 132.165 45.5893C131.425 46.5172 131.025 47.6722 131.034 48.8603C131.043 50.0484 131.46 51.1972 132.215 52.1137C132.969 53.0302 134.015 53.6585 135.178 53.8932C136.34 54.1278 137.547 53.9544 138.597 53.4022C140.12 52.6111 141.682 51.8975 143.277 51.2642L148.678 49.2772C149.425 49.0067 150.101 48.567 150.651 47.9921C151.201 47.4172 151.612 46.7227 151.85 45.9628C151.898 45.8039 152.072 45.2873 152.112 45.168L152.183 45.1124L154.769 43.8566C155.808 43.4553 156.867 43.1078 157.941 42.8155C158.592 42.6683 159.208 42.3986 159.758 42.0207C161.196 40.9253 162.505 39.6694 163.66 38.2772C165.246 36.5604 166.039 35.7338 166.245 35.4874C167.129 34.7122 167.927 33.8434 168.625 32.8964C168.759 32.7882 168.886 32.6714 169.005 32.5466C170.124 31.426 171.075 30.504 171.781 29.8284C171.81 29.804 171.836 29.7774 171.861 29.749C172.627 28.912 173.295 27.9893 173.851 26.999C175.247 24.8133 175.818 23.2952 175.818 21.7533V20.2352C175.639 19.4802 175.639 18.6933 175.818 17.9383L175.81 17.1673Z" stroke="#231F20" stroke-width="3" stroke-miterlimit="10"/>
<path d="M22.5562 43.3559C21.8385 42.6798 21.2593 41.8699 20.851 40.9715C20.0632 38.8909 19.3906 36.7682 18.8365 34.6131C18.4928 32.7215 18.1835 30.9836 17.9086 29.3993C17.8581 29.2744 17.7727 29.1667 17.6627 29.0893L17.0124 28.9939H15.8623L12.9199 28.8429C12.7374 28.8429 12.6106 28.9065 12.5788 29.0257C12.3616 29.8511 12.2183 30.6943 12.1505 31.5452C12.0554 32.4116 11.9919 33.0314 11.9919 33.4368V34.4303C11.9919 34.2713 11.9919 34.4303 11.9285 34.9867C11.8333 35.1138 10.2867 36.3219 7.25699 38.6189C7.0075 37.4244 6.88257 36.2071 6.88423 34.9867C6.89141 33.6574 6.98414 32.33 7.16182 31.0127L7.47115 28.8111C7.44423 28.7058 7.38942 28.6096 7.31252 28.5329H5.50421C5.6763 27.7281 5.94251 26.9465 6.29733 26.2042C6.60211 26.1377 6.91339 26.1057 7.22529 26.1088H8.0184C8.0184 26.1088 8.08185 26.1088 8.11357 25.9816C8.45461 24.7418 8.76392 23.7165 9.04151 22.9455C9.23186 22.4766 9.54119 21.7374 10.0012 20.7121C10.4612 19.6868 10.7467 19.1861 10.9291 18.8125C12.0685 16.5967 13.4953 14.5416 15.1723 12.7005C15.3227 12.6071 15.4951 12.555 15.672 12.5495C15.6085 12.5495 15.9179 12.5495 16.5682 12.6131C17.0917 12.6131 17.7182 12.7005 18.4558 12.7641C18.4558 12.7641 18.6779 12.2078 19.0427 11.2461C19.1917 10.7402 19.4972 10.2949 19.9152 9.9744C20.7083 9.47367 22.9449 8.60734 26.6329 7.33566C24.6661 10.752 23.4317 14.5416 23.0083 18.4628C22.8576 20.1399 22.7625 21.038 22.7625 21.1254V22.6196H17.3217V21.7533L17.5358 19.4246V18.0893C17.5009 18.0556 17.4567 18.0335 17.4089 18.0257C17.3217 18.0257 17.1313 18.2721 16.7903 18.741C15.8532 20.1536 15.0259 21.6363 14.3157 23.176C13.9747 23.8277 13.5226 24.853 13.015 26.1882C13.2292 26.4664 14.6013 26.5936 17.2265 26.5936C17.4406 26.5936 17.5358 26.4982 17.5358 26.3154C17.5358 26.1326 17.3217 25.4411 17.3217 25.1947V24.1377C17.3217 23.6131 18.8048 23.3429 21.8107 23.3429C22.0248 23.3429 22.3976 23.3429 22.8656 23.3985C22.9152 24.4076 23.0802 25.4077 23.3573 26.379L29.956 26.4426L27.077 29.2959H24.0711C24.0161 29.3906 23.9835 29.4966 23.9759 29.6059C24.2741 30.7658 24.6694 31.8984 25.1577 32.9917C26.5395 36.8243 28.4224 40.4564 30.7571 43.793C31.1298 44.6912 32.2164 46.09 34.0406 48.0452C31.0109 47.0199 28.1239 45.9708 25.3718 44.866C24.9039 44.6514 23.9442 44.1825 22.5562 43.4036" fill="white"/>
<path d="M41.8766 15.3393C38.5841 15.6909 35.3612 16.5265 32.3116 17.8191C31.7266 18.0738 31.1572 18.3631 30.6064 18.6854C29.8216 19.3195 29.2647 20.1929 29.0202 21.1731C28.9281 21.4859 28.8749 21.8089 28.8616 22.1348V22.413C29.1074 24.1536 29.5119 25.1709 30.0988 25.4809C30.2676 25.6086 30.4743 25.6758 30.6857 25.6717C30.737 25.6898 30.793 25.6898 30.8444 25.6717C31.7089 25.5127 33.2237 24.6464 35.3334 23.0647C36.9786 21.9041 38.441 20.5029 39.6717 18.9079L39.4497 21.2923C39.2355 23.5257 38.6169 25.0517 37.5303 25.8862C37.0662 26.2225 36.631 26.5975 36.2296 27.0069C35.5884 27.7101 34.7929 28.2543 33.9058 28.5965H33.6282C33.4753 28.6123 33.3211 28.6123 33.1682 28.5965C32.6685 28.3183 31.9309 27.913 30.9712 27.4202C30.9421 27.4668 30.9207 27.5178 30.9078 27.5712V27.6666C30.9078 28.0402 31.463 29.0654 32.5813 30.7663C33.6996 32.4672 34.4054 33.5004 34.7465 33.9455C36.3327 35.9007 38.0617 37.9751 40.0128 40.1847H39.9493L39.64 40.1211C35.4603 39.6204 32.272 38.7858 30.0037 37.6095C28.3582 35.1715 26.8694 32.631 25.5463 30.0033C23.6587 26.3075 22.699 23.6449 22.6673 21.8725C22.527 20.3545 22.8744 18.8313 23.6587 17.525C23.8729 17.2468 24.1822 16.8414 24.6184 16.2533C25.7938 14.7944 27.0769 13.4262 28.4571 12.1601C28.2358 13.6719 28.1008 15.1951 28.0526 16.7222L27.997 17.374V18.3992L28.116 18.6139L28.3381 18.4549C28.6753 17.5845 28.9535 16.6923 29.1709 15.7844C29.4776 14.6616 29.948 13.5904 30.5668 12.6052C30.8126 12.1998 30.9395 11.9852 30.9712 11.9534C31.6633 11.2327 32.5609 10.7441 33.541 10.5546L35.6744 9.99825L36.42 9.84724C40.4091 8.80328 44.4629 8.0253 48.5547 7.51846C46.8871 10.0048 45.0785 12.3931 43.1377 14.6716C42.8072 15.0685 42.3457 15.3336 41.837 15.4188" fill="white"/>
<path d="M93.1913 43.793C90.6872 44.459 88.1444 44.9686 85.5773 45.319C83.0267 45.726 80.4506 45.9518 77.8682 45.9946C74.4887 46.0323 71.1171 45.6586 67.8274 44.8819C65.516 44.2673 63.2414 43.5217 61.0145 42.6485C58.3849 41.6996 55.8643 40.4713 53.4958 38.9845C52.9009 38.611 52.3775 37.3949 51.9095 35.2887L51.8223 34.8277C49.2456 37.3202 46.3035 39.4029 43.098 41.0033C41.8939 41.4715 40.6143 41.714 39.3228 41.7186H39.2276H36.2613C33.58 41.6418 30.9174 41.2443 28.3301 40.5344L23.619 39.2309L28.2984 37.84C31.4618 36.925 34.5728 35.8371 37.6175 34.5813L43.6928 31.2273C44.7779 30.5229 45.8213 29.7559 46.8177 28.9303C47.5289 28.3854 48.2119 27.8044 48.864 27.1897L46.6353 24.9881C43.4998 21.9096 41.4034 19.5252 40.3459 17.835C39.5529 16.6096 38.8377 15.3354 38.2045 14.0199L36.5389 8.45633H41.829C44.065 8.52023 46.2743 8.96086 48.3643 9.75978C50.4871 10.4995 52.5241 11.4668 54.4396 12.6449L55.7403 13.4397L53.694 16.0467H52.9802C51.156 16.0467 50.2519 16.301 50.2519 16.8415C50.2519 17.6363 51.3068 19.2894 53.4244 21.7135L55.2803 19.3848C56.4206 17.9215 57.7186 16.5887 59.1507 15.4108C60.0451 14.9518 60.9669 14.5483 61.9107 14.2027C63.9576 13.5386 66.1061 13.2453 68.2557 13.3364C70.919 13.2859 73.5795 13.5365 76.1868 14.0835L78.0745 14.5445L77.0831 16.1341C76.0461 17.606 74.8284 18.9411 73.4585 20.1081C71.4123 21.9361 69.8631 22.8368 68.8109 22.8103C68.1605 22.8103 67.7877 22.8104 67.6688 22.7468H66.7091C65.1896 22.6133 63.6621 22.8876 62.2835 23.5416C61.0372 24.5431 59.9042 25.6785 58.9048 26.9274C59.0909 27.2017 59.3093 27.4525 59.5552 27.6745C70.4209 37.2121 78.783 41.9809 84.6415 41.9809H86.8384L93.1913 43.793ZM78.4869 43.952C81.5082 43.9261 84.5142 43.5175 87.4332 42.7359H85.2998C79.0711 42.7359 70.3997 37.8532 59.2855 28.0878C58.7117 27.5371 58.201 26.9239 57.7627 26.2598C58.4192 25.3561 59.1459 24.5056 59.9359 23.7164C60.6082 22.9185 61.3876 22.2177 62.2518 21.6341C63.8411 20.8975 65.5878 20.567 67.3356 20.6723C67.8274 20.6723 68.9774 20.7678 69.4691 20.7678C70.2464 20.7678 71.518 19.973 73.284 18.3834C74.5035 17.349 75.5715 16.1476 76.4565 14.8147C73.9488 14.3031 71.3935 14.0633 68.8346 14.0994C66.146 14.0994 64.2187 14.3537 63.0766 14.8465C62.6791 15.0482 62.2652 15.2157 61.8393 15.3472C61.3965 15.4555 60.9772 15.644 60.6021 15.9036C59.2671 17.0142 58.0618 18.2727 57.0093 19.655C55.423 21.7374 54.4078 22.9455 54.0668 23.2873C50.9974 19.965 49.4509 17.6124 49.4509 16.2454C49.4268 15.7914 49.5667 15.344 49.8449 14.985C50.123 14.6259 50.5209 14.3793 50.9657 14.2901C51.8198 14.1049 52.6944 14.0327 53.5671 14.0755C53.8765 13.702 54.0985 13.4238 54.2492 13.233C52.4653 12.1081 50.5535 11.2008 48.5546 10.5307C46.5939 9.77482 44.5229 9.34526 42.4238 9.25906H39.0134C39.4734 10.7533 39.8462 11.8978 40.1 12.7403C41.0854 14.8357 42.2898 16.8206 43.6928 18.6615C45.1084 20.3104 46.6067 21.8861 48.1819 23.3826L51.3068 26.3949C51.3068 26.8241 50.2836 27.8494 48.277 29.431C47.2283 30.2872 46.132 31.0833 44.9935 31.8154C40.9328 34.017 38.8548 35.1377 38.7993 35.2013C35.7114 36.51 32.5462 37.6275 29.3215 38.5474C30.905 38.8529 32.5088 39.0415 34.1199 39.1117C36.412 39.2627 38.1489 39.3899 39.291 39.4773C39.6879 39.4728 40.0833 39.5264 40.4648 39.6363C40.2597 39.6663 40.0513 39.6663 39.8462 39.6363C39.7039 39.652 39.5603 39.652 39.4179 39.6363C39.5597 39.6595 39.7044 39.6595 39.8462 39.6363C40.9545 39.6457 42.0556 39.4573 43.098 39.0799C46.8494 37.2757 50.815 34.1442 54.9947 29.6456C55.7879 30.4404 56.3589 30.973 56.7555 31.3465C57.5962 32.189 58.0324 32.8407 58.0324 33.2699C58.0324 34.1124 57.382 34.5178 56.0496 34.5178C55.3299 34.494 54.6135 34.4089 53.9082 34.2634C54.1291 35.2437 54.4398 36.2015 54.8361 37.1247C57.1339 38.5742 59.5867 39.7606 62.1487 40.6615C64.3159 41.5329 66.539 42.2577 68.8029 42.8313C71.9705 43.5843 75.2156 43.9605 78.471 43.952M53.5354 33.556C54.1464 33.6988 54.7718 33.7708 55.3992 33.7706C55.5311 33.7841 55.664 33.7841 55.7958 33.7706L55.3992 33.3335L54.3444 32.3161C53.9399 32.7453 53.5513 33.1507 53.1944 33.5243L53.5354 33.556Z" fill="white"/>
<path d="M86.8781 32.3082C86.8781 32.5943 87.1874 33.2143 87.9012 34.176C84.8855 36.0775 81.595 37.501 78.1458 38.3964C75.141 39.1307 72.0877 39.6486 69.0091 39.9462L63.6476 35.0503C68.0177 34.3985 70.9602 33.715 72.5068 32.9997C72.8511 32.9195 73.1769 32.7738 73.4664 32.5705C73.4664 32.3162 72.8478 31.5134 71.4836 30.1861C69.7229 28.4217 68.7024 27.3619 68.4222 27.0069L69.1598 23.0329C70.3689 24.0518 71.5182 25.1398 72.6019 26.2916C72.9747 26.6333 73.7123 27.3169 74.7989 28.3739L74.1485 31.9744C74.1485 32.03 74.2754 32.0619 74.4261 32.0936C74.7989 32.189 76.0124 31.6645 78.0824 30.504C79.3174 29.8187 80.5069 29.0541 81.6435 28.215C83.7214 26.7288 84.8635 25.5127 85.0222 24.6146C85.2508 23.7513 85.1519 22.8338 84.7446 22.0394C83.8717 20.5613 82.7838 19.2219 81.5166 18.0654L77.8048 14.465C77.625 14.5613 77.4826 14.7152 77.4003 14.9022L75.1082 27.0069C74.5213 26.4108 72.8161 24.7974 69.9688 22.1587C69.7546 21.9441 69.6595 21.793 69.6912 21.6341L71.4519 11.7945L78.7327 8.13843L77.8682 12.7959C77.8855 12.8284 77.9122 12.8548 77.9447 12.8718C77.9773 12.8889 78.0142 12.8956 78.0507 12.8913L82.4207 10.5069C83.5302 11.463 84.5891 12.4764 85.5932 13.543L90.4233 18.7251C92.6202 21.0539 93.7068 22.9137 93.7068 24.3444C93.7068 25.934 92.7154 27.5235 90.7643 29.1847C90.0505 29.7728 88.7498 30.8617 86.8622 32.3638" fill="white"/>
<path d="M111.441 33.6117C102.114 35.1377 94.5317 37.4029 88.734 40.4708C87.9628 40.8849 87.2279 41.3635 86.537 41.9014L87.6871 38.2374C88.1047 37.0179 88.622 35.8349 89.2336 34.7006L90.9388 33.0553C93.2309 30.8537 95.4596 28.835 97.6565 27.0705C98.7669 26.1645 101.091 24.4874 104.596 22.103L105.834 21.3559L109.173 19.4961C110.136 19.0311 111.05 18.4692 111.901 17.8191C110.993 17.5714 110.058 17.4353 109.117 17.4137H105.588L103.946 17.5091C101.555 17.7019 99.1827 18.0739 96.8476 18.6218V18.6854C96.6203 18.5801 96.4027 18.4551 96.1972 18.3118C94.219 16.9141 92.3738 15.3364 90.685 13.5987C94.9394 12.3096 99.3448 11.588 103.787 11.4527L107.285 11.3653C112.115 11.2699 115.621 11.6753 117.754 12.5734C118.376 13.2813 118.877 14.0869 119.237 14.9578C119.759 15.8803 120.225 16.8331 120.633 17.8111C120.697 17.9939 120.911 18.7092 121.252 19.9253C119.642 19.4304 117.995 19.0663 116.327 18.8364C115.216 19.3927 114.225 19.9253 113.36 20.426C112.274 21.0777 110.632 22.0712 108.467 23.4701C105.641 25.3278 102.987 27.4344 100.536 29.7649L99.8535 30.4802C99.8524 30.5007 99.8555 30.5212 99.8626 30.5404C99.8697 30.5597 99.8806 30.5773 99.8947 30.5922C99.9088 30.607 99.9258 30.6189 99.9446 30.6269C99.9634 30.635 99.9837 30.6392 100.004 30.6392C100.718 30.2974 101.281 30.0431 101.646 29.892C103.074 29.3908 104.534 28.9871 106.016 28.6839C108.697 28.1428 111.426 27.8791 114.161 27.8971H116.049H116.358C115.248 29.2642 113.662 31.124 111.655 33.4607C111.567 33.5382 111.475 33.6099 111.377 33.6753M115.343 33.6753C114.934 33.7384 114.519 33.7596 114.106 33.7388C113.776 33.7596 113.445 33.7596 113.114 33.7388C113.582 33.1507 115.129 31.2909 117.762 28.1753C117.855 28.0502 117.982 27.9538 118.127 27.8971L122.156 28.4852C121.442 28.9542 120.26 29.8205 118.619 31.0604C118.063 31.5293 117.032 32.3638 115.446 33.6355" fill="white"/>
<path d="M163.128 6.54883L156.871 9.31471C152.628 11.1745 149.963 12.7006 148.884 13.8451C147.702 15.1167 146.743 17.2627 146.029 20.3306V20.426C145.164 23.0011 144.609 24.7974 144.387 25.8544L141.326 39.668L140.453 39.819C140.144 39.819 139.898 39.8826 139.716 39.8826C138.288 39.8826 136.71 39.1355 135.004 37.681C134.722 37.4934 134.514 37.212 134.418 36.8862C134.291 36.4888 134.013 35.4636 133.585 33.7547C132.498 29.7807 131.816 27.301 131.539 26.2757L130.547 28.5726H130.42L129.064 32.2923L131.166 31.9267L131.57 33.0394C131.721 33.5083 131.943 34.3429 132.189 35.5271L132.466 36.7352L118.92 41.7424C117.897 42.116 115.851 42.3068 112.758 42.3068C111.425 42.3068 110.553 42.3068 110.156 42.2432C109.537 42.1478 109.196 41.9968 109.165 41.7186L108.943 39.8826L115.391 36.7035C117.77 35.7735 119.697 32.8566 121.157 27.9607L121.402 27.0626H121.553C123.139 22.3732 123.933 19.6153 124.004 18.7728C123.909 18.1847 122.83 17.978 122.116 17.978C121.775 18.0416 120.379 18.4151 117.992 19.1304C117.611 19.2484 117.256 19.4371 116.945 19.6868L116.668 19.9332L114.463 20.1239L114.28 18.3198V18.2641C114.334 17.7901 114.515 17.3396 114.804 16.9607C115.039 16.4491 115.352 15.9772 115.732 15.5618L115.89 15.4029L116.073 15.3154C118.16 14.0567 120.358 12.9925 122.64 12.1363C124.904 11.2552 127.302 10.7739 129.73 10.7136C131.73 10.7107 133.693 11.2607 135.401 12.3032L136.02 12.6767L136.178 14.0994L135.274 16.1182L135.496 16.9925C135.703 15.9978 135.992 15.0221 136.361 14.0755C136.916 12.4859 137.225 11.5878 137.32 11.4368V11.3732V11.3097C138.093 10.1032 139.093 9.05864 140.263 8.2338C141.375 7.3337 142.738 6.80308 144.165 6.71573L163.128 6.54883ZM129.706 27.4679V27.1579L123.108 27.7223C121.402 33.0236 119.237 36.2504 116.541 37.4029L110.624 39.9144C111.499 40.2214 112.429 40.3379 113.352 40.2562C116.295 40.2562 118.214 40.1052 119.079 39.7634L131.435 35.2251C131.286 34.4483 131.09 33.6813 130.849 32.9282C130.502 33.0155 130.149 33.0792 129.794 33.1189C128.802 33.2143 128.279 32.7453 128.207 31.7201C128.739 30.202 129.231 28.8032 129.794 27.4679M156.99 7.35951L144.942 7.45488C143.732 7.53203 142.58 8.00058 141.659 8.79014C140.686 9.49724 139.854 10.3816 139.208 11.3971C138.83 12.2542 138.509 13.1358 138.248 14.0358C137.936 14.8826 137.687 15.7513 137.503 16.6348V17.3819C138.296 17.2309 138.716 17.9144 138.835 19.4325C138.829 20.664 138.642 21.8879 138.28 23.0647L137.487 26.4188L134.418 15.3631L135.345 13.2251V12.8516C133.861 11.9466 132.158 11.4631 130.42 11.4527C128.107 11.5283 125.824 12.0014 123.671 12.8516C121.485 13.5941 119.395 14.5946 117.445 15.8321C117.126 16.1726 116.859 16.5582 116.652 16.9766C116.506 17.1548 116.39 17.3563 116.311 17.5727V17.9144H116.739C117.194 17.5775 117.697 17.3097 118.23 17.1196C120.736 16.4043 122.196 16.0069 122.592 15.9433C123.344 15.8755 124.101 16.0042 124.789 16.3169C125.136 16.4441 125.438 16.6696 125.659 16.9659C125.88 17.2623 126.011 17.6167 126.034 17.986C126.092 18.5158 125.254 21.4645 123.52 26.832V27.2692L130.151 26.681L132.284 21.4036L132.379 21.5307C133.743 26.4585 135.076 31.275 136.345 35.9563C137.828 37.228 139.129 37.8797 140.247 37.8797C140.411 37.8946 140.575 37.8946 140.739 37.8797L143.562 24.9722C144.3 22.2143 144.863 20.3465 145.236 19.4086C146.251 15.84 147.337 13.4477 148.408 12.3032C149.891 10.7136 152.739 9.12395 156.926 7.39924M136.17 19.655L136.67 21.3639C136.72 21.0241 136.752 20.6818 136.765 20.3385C136.758 20.0727 136.737 19.8074 136.702 19.5438L136.17 19.655Z" fill="white"/>
<path d="M158.949 34.7959C158.039 35.9006 157.01 36.9002 155.879 37.7764C154.516 38.1375 153.174 38.5726 151.858 39.0799L148.725 40.6138C147.274 41.5437 146.497 42.4737 146.346 43.4354C146.346 43.5943 146.195 43.9361 146.037 44.4289L140.556 46.4477C138.772 47.1526 137.025 47.9485 135.322 48.8321C136.591 47.2425 140.741 42.2352 147.774 33.8104C149.415 31.7916 151.525 29.3993 154.063 26.5777C154.65 26.3631 155.514 26.0849 156.664 25.7432C156.506 26.1406 156.355 26.538 156.165 26.8877C155.951 27.3365 155.825 27.8221 155.792 28.3183C155.792 29.0257 156.228 29.3993 157.069 29.3993C157.529 29.3993 158.306 28.9701 159.448 28.064C160.004 27.5638 160.607 27.1192 161.249 26.7367C162.126 27.4743 162.953 28.271 163.723 29.121C163.769 29.2178 163.791 29.3241 163.787 29.431C163.787 29.7728 163.136 30.5517 161.836 31.7598C161.526 32.0697 160.567 33.095 158.988 34.8356M169.822 21.7374C169.633 22.63 169.242 23.4673 168.68 24.1854C168.291 24.8481 167.857 25.4828 167.379 26.0849C166.586 26.8241 165.643 27.754 164.532 28.8747C163.459 28.1779 162.49 27.3324 161.653 26.3631C161.637 26.3006 161.637 26.2349 161.653 26.1724C162.243 25.7596 162.777 25.2705 163.239 24.7179C163.945 23.9231 164.286 23.3826 164.286 23.1283C164.286 22.6276 163.977 22.3812 163.327 22.3812C162.676 22.3812 160.638 22.9693 156.982 24.1218C155.959 24.4318 154.721 24.861 153.23 25.4253C151.827 26.0507 150.333 26.4478 148.805 26.6015C146.108 26.6015 143.253 25.1709 140.223 22.3494C138.57 20.822 137.17 19.0406 136.075 17.0719C138.209 19.4007 140.318 20.5849 142.42 20.5849C143.032 20.6226 143.64 20.4579 144.149 20.116C144.514 19.7775 144.82 19.3798 145.053 18.9397C145.513 18.1926 145.846 17.7237 145.949 17.5727C147.623 15.6175 150.129 14.0676 153.444 12.8516C155.163 12.1675 156.983 11.7701 158.83 11.6752H160.876C161.495 11.6752 162.549 13.4715 164.001 17.0719H159.02C158.692 17.1237 158.361 17.1555 158.029 17.1673C156.515 17.262 155.027 17.6085 153.627 18.1926C151.43 18.9874 150.343 19.957 150.343 21.0459C150.343 21.2049 150.534 21.4513 150.875 21.7613C151.132 21.9828 151.424 22.16 151.739 22.2858C152.157 22.3686 152.583 22.4007 153.008 22.3812C155.121 22.2426 157.205 21.8147 159.202 21.1095C161.211 20.4064 163.305 19.9786 165.428 19.8378L169.822 20.2432V21.7374ZM169.822 17.9224C167.253 17.4534 165.46 17.1752 164.374 17.0481C164.298 17.0045 164.235 16.9414 164.191 16.8653L163.398 13.6861C163.037 12.4405 162.472 11.2639 161.725 10.2049C162.748 9.61672 164.516 8.78219 166.959 7.66153C167.607 9.08904 168.176 10.551 168.664 12.0408C169.298 13.6929 169.693 15.4272 169.838 17.1912L169.822 17.9224Z" fill="white"/>
</g>
<defs>
<clipPath id="clip0_2043_208">
<rect width="177" height="55" fill="white" transform="translate(0 0.222229)"/>
</clipPath>
</defs>
</svg>
