<svg width="26" height="27" viewBox="0 0 26 27" fill="none" xmlns="http://www.w3.org/2000/svg">
<path fill-rule="evenodd" clip-rule="evenodd" d="M6.32056 20.5127C5.98209 20.1742 5.98209 19.6254 6.32056 19.287L17.8411 7.76644H10.4C9.92141 7.76644 9.53338 7.37842 9.53338 6.89978C9.53338 6.42114 9.92141 6.03311 10.4 6.03311H19.9334C20.1632 6.03311 20.3837 6.12442 20.5463 6.28696C20.7087 6.44949 20.8 6.66992 20.8 6.89978V16.4331C20.8 16.9118 20.412 17.2998 19.9334 17.2998C19.4548 17.2998 19.0667 16.9118 19.0667 16.4331V8.9921L7.5462 20.5127C7.20775 20.851 6.65901 20.851 6.32056 20.5127Z" fill="black"/>
</svg>
