<svg xmlns="http://www.w3.org/2000/svg" viewBox="0 0 223.17 69.2"><defs><style>.cls-1{fill:#006cff;}.cls-2{fill:none;stroke:#231f20;stroke-miterlimit:10;stroke-width:3px;}.cls-3{fill:#fff;}</style></defs><g id="Layer_2" data-name="Layer 2"><g id="Layer_1-2" data-name="Layer 1"><path class="cls-1" d="M221.67,21.32a28.58,28.58,0,0,0-1.83-8.57,61.8,61.8,0,0,0-2.42-6.18,6.49,6.49,0,0,0-5.89-3.74,5,5,0,0,0-.77,0,6.45,6.45,0,0,0-4-1.38L183,1.66a14.91,14.91,0,0,0-8.69,3.11A21.49,21.49,0,0,0,171,7.68a20.32,20.32,0,0,0-6.28-1,32.85,32.85,0,0,0-11.16,2.19c-.53.19-1.07.4-1.6.62-3.27-1.32-7.8-2-13.84-2h-1.84l-4.38.12a70.32,70.32,0,0,0-18.18,2.95,6.75,6.75,0,0,0-1.08.43c-1-1-2.09-2-3.32-3.07a6.46,6.46,0,0,0-3.5-1.55,6.61,6.61,0,0,0-1.49-1.59,6.52,6.52,0,0,0-6.84-.62L88.26,8.83A6.58,6.58,0,0,0,86.66,10a28.7,28.7,0,0,0-9.75,1.48l-1.14.44a7.52,7.52,0,0,0-1-.76l-1.63-1a45.35,45.35,0,0,0-4.43-2.39,6.43,6.43,0,0,0-6.35-5.15,6.78,6.78,0,0,0-.77.05c-2.6.31-5.24.72-7.94,1.24H47.13a6.51,6.51,0,0,0-5.22,2.63l-.07.11-.14,0-.93.29a6.41,6.41,0,0,0-1.13-2,6.48,6.48,0,0,0-7.12-2c-6.57,2.26-8.59,3.17-9.85,4a8.48,8.48,0,0,0-2.35,2.24l-.52.06a7.44,7.44,0,0,0-4.16,2,40.94,40.94,0,0,0-6.48,9.18c-.05.08-.11.2-.16.29-.24.49-.64,1.29-1.19,2.43a.91.91,0,0,1-.07.14c-.64,1.41-1.07,2.46-1.32,3.09a1.8,1.8,0,0,0-.08.21L6.19,27A6.53,6.53,0,0,0,3,30.23,19.07,19.07,0,0,0,1.59,34.7,6.51,6.51,0,0,0,3,40c.12.14.25.27.37.4-.1,1.23-.15,2.39-.15,3.47a29.26,29.26,0,0,0,.6,5.88,6.52,6.52,0,0,0,10.3,3.89c3-2.3,4.67-3.55,5.61-4.32.55,1.75,1.05,3.2,1.56,4.45a14.82,14.82,0,0,0,3.17,4.72l.22.24A6.44,6.44,0,0,0,26.36,60c1.82,1,3.16,1.67,4,2l.31.14c3.5,1.41,7.19,2.77,11.29,4.15a6.56,6.56,0,0,0,2.08.34,6.51,6.51,0,0,0,6.35-7.93H51a18.9,18.9,0,0,0,7.17-1.51,40.37,40.37,0,0,0,6.06-3.52,8.35,8.35,0,0,0,.74.55,55.76,55.76,0,0,0,10.74,5.24,83.93,83.93,0,0,0,9.33,3,59.36,59.36,0,0,0,14.21,1.6,75.46,75.46,0,0,0,10.67-.93,84,84,0,0,0,10.41-2.09,6.5,6.5,0,0,0,4.76-6.24,6.67,6.67,0,0,0-.35-2.14c2.24-.75,4.65-1.46,7.21-2.1a.13.13,0,0,1,0,.06l.27,2.26c.1.91.9,5.5,6.75,6.38l.46,0c.82.06,2.16.1,3.78.1,4.9,0,7.89-.33,10-1.1L168,53c.43.32.85.62,1.28.9-1.25,1.51-2.15,2.6-2.67,3.25a6.51,6.51,0,0,0,8.12,9.83,64.17,64.17,0,0,1,5.89-2.68l6.82-2.5a6.52,6.52,0,0,0,4-4.17l.33-1,.09-.07,3.26-1.58a38.63,38.63,0,0,1,4.06-1.31,6.56,6.56,0,0,0,2.29-1.06,29.49,29.49,0,0,0,4.92-4.7c2-2.17,2.95-3.21,3.25-3.51a21.64,21.64,0,0,0,3-3.27c.16-.13.32-.28.48-.43,1.41-1.41,2.61-2.57,3.49-3.42l.1-.1a19.18,19.18,0,0,0,2.52-3.47c1.75-2.74,2.47-4.65,2.47-6.6V25.15a6.93,6.93,0,0,0-.16-1.45,6.91,6.91,0,0,0,.16-1.44Z"/><path class="cls-2" d="M221.67,21.32a28.58,28.58,0,0,0-1.83-8.57,61.8,61.8,0,0,0-2.42-6.18,6.49,6.49,0,0,0-5.89-3.74,5,5,0,0,0-.77,0,6.45,6.45,0,0,0-4-1.38L183,1.66a14.91,14.91,0,0,0-8.69,3.11A21.49,21.49,0,0,0,171,7.68a20.32,20.32,0,0,0-6.28-1,32.85,32.85,0,0,0-11.16,2.19c-.53.19-1.07.4-1.6.62-3.27-1.32-7.8-2-13.84-2h-1.84l-4.38.12a70.32,70.32,0,0,0-18.18,2.95,6.75,6.75,0,0,0-1.08.43c-1-1-2.09-2-3.32-3.07a6.46,6.46,0,0,0-3.5-1.55,6.61,6.61,0,0,0-1.49-1.59,6.52,6.52,0,0,0-6.84-.62L88.26,8.83A6.58,6.58,0,0,0,86.66,10a28.7,28.7,0,0,0-9.75,1.48l-1.14.44a7.52,7.52,0,0,0-1-.76l-1.63-1a45.35,45.35,0,0,0-4.43-2.39,6.43,6.43,0,0,0-6.35-5.15,6.78,6.78,0,0,0-.77.05c-2.6.31-5.24.72-7.94,1.24H47.13a6.51,6.51,0,0,0-5.22,2.63l-.07.11-.14,0-.93.29a6.41,6.41,0,0,0-1.13-2,6.48,6.48,0,0,0-7.12-2c-6.57,2.26-8.59,3.17-9.85,4a8.48,8.48,0,0,0-2.35,2.24l-.52.06a7.44,7.44,0,0,0-4.16,2,40.94,40.94,0,0,0-6.48,9.18c-.05.08-.11.2-.16.29-.24.49-.64,1.29-1.19,2.43a.91.91,0,0,1-.07.14c-.64,1.41-1.07,2.46-1.32,3.09a1.8,1.8,0,0,0-.08.21L6.19,27A6.53,6.53,0,0,0,3,30.23,19.07,19.07,0,0,0,1.59,34.7,6.51,6.51,0,0,0,3,40c.12.14.25.27.37.4-.1,1.23-.15,2.39-.15,3.47a29.26,29.26,0,0,0,.6,5.88,6.52,6.52,0,0,0,10.3,3.89c3-2.3,4.67-3.55,5.61-4.32.55,1.75,1.05,3.2,1.56,4.45a14.82,14.82,0,0,0,3.17,4.72l.22.24A6.44,6.44,0,0,0,26.36,60c1.82,1,3.16,1.67,4,2l.31.14c3.5,1.41,7.19,2.77,11.29,4.15a6.56,6.56,0,0,0,2.08.34,6.51,6.51,0,0,0,6.35-7.93H51a18.9,18.9,0,0,0,7.17-1.51,40.37,40.37,0,0,0,6.06-3.52,8.35,8.35,0,0,0,.74.55,55.76,55.76,0,0,0,10.74,5.24,83.93,83.93,0,0,0,9.33,3,59.36,59.36,0,0,0,14.21,1.6,75.46,75.46,0,0,0,10.67-.93,84,84,0,0,0,10.41-2.09,6.5,6.5,0,0,0,4.76-6.24,6.67,6.67,0,0,0-.35-2.14c2.24-.75,4.65-1.46,7.21-2.1a.13.13,0,0,1,0,.06l.27,2.26c.1.91.9,5.5,6.75,6.38l.46,0c.82.06,2.16.1,3.78.1,4.9,0,7.89-.33,10-1.1L168,53c.43.32.85.62,1.28.9-1.25,1.51-2.15,2.6-2.67,3.25a6.51,6.51,0,0,0,8.12,9.83,64.17,64.17,0,0,1,5.89-2.68l6.82-2.5a6.52,6.52,0,0,0,4-4.17l.33-1,.09-.07,3.26-1.58a38.63,38.63,0,0,1,4.06-1.31,6.56,6.56,0,0,0,2.29-1.06,29.49,29.49,0,0,0,4.92-4.7c2-2.17,2.95-3.21,3.25-3.51a21.64,21.64,0,0,0,3-3.27c.16-.13.32-.28.48-.43,1.41-1.41,2.61-2.57,3.49-3.42l.1-.1a19.18,19.18,0,0,0,2.52-3.47c1.75-2.74,2.47-4.65,2.47-6.6V25.15a6.93,6.93,0,0,0-.16-1.45,6.91,6.91,0,0,0,.16-1.44Z"/><path class="cls-3" d="M28.44,54.28a9.72,9.72,0,0,1-2.15-3,75.75,75.75,0,0,1-2.54-8c-.43-2.39-.82-4.57-1.17-6.56a.83.83,0,0,0-.31-.39l-.82-.12H20l-3.71-.2c-.23,0-.39.08-.42.24a16.8,16.8,0,0,0-.55,3.16c-.12,1.09-.2,1.87-.2,2.38v1.25c0-.19,0,0-.07.7-.12.16-2.07,1.68-5.9,4.57a22.8,22.8,0,0,1-.47-4.57,40.54,40.54,0,0,1,.35-5l.39-2.78a.93.93,0,0,0-.19-.35H6.92a13.33,13.33,0,0,1,1-2.93,6,6,0,0,1,1.17-.11h1s.07,0,.11-.16c.43-1.56.82-2.85,1.17-3.83.24-.58.63-1.52,1.22-2.81.54-1.13.93-1.91,1.17-2.38a34.72,34.72,0,0,1,5.35-7.69,1.13,1.13,0,0,1,.62-.2c-.08,0,.31,0,1.13.08s1.45.12,2.39.2c0,0,.27-.71.74-1.92a3.07,3.07,0,0,1,1.09-1.6,59,59,0,0,1,8.47-3.32A35.73,35.73,0,0,0,29,23c-.2,2.11-.32,3.24-.32,3.36v1.87H21.84V27.18l.27-2.93V22.57a.28.28,0,0,0-.15-.08c-.12,0-.35.32-.78.9A40.66,40.66,0,0,0,18.05,29c-.43.82-1,2.11-1.64,3.78.28.36,2,.51,5.31.51.28,0,.39-.12.39-.35s-.27-1.09-.27-1.41V30.19c0-.67,1.87-1,5.66-1,.27,0,.74,0,1.33.08A17.38,17.38,0,0,0,29.45,33l8.32.08-3.63,3.59H30.35a.83.83,0,0,0-.12.39,26.49,26.49,0,0,0,1.49,4.25,57.83,57.83,0,0,0,7.07,13.44c.46,1.13,1.83,2.89,4.14,5.35-3.83-1.29-7.46-2.62-10.94-4-.58-.28-1.79-.86-3.55-1.84"/><path class="cls-3" d="M52.8,19a42.87,42.87,0,0,0-12.06,3.12,18.94,18.94,0,0,0-2.15,1.1,5.88,5.88,0,0,0-2,3.12,5.06,5.06,0,0,0-.2,1.21l0,.35c.32,2.19.82,3.48,1.57,3.87a1.21,1.21,0,0,0,.74.23.27.27,0,0,0,.19,0c1.1-.19,3-1.29,5.66-3.28a24.92,24.92,0,0,0,5.47-5.23l-.27,3c-.28,2.81-1.06,4.72-2.42,5.78a11.1,11.1,0,0,0-1.64,1.4,7.76,7.76,0,0,1-2.93,2h-.35a2.93,2.93,0,0,1-.59,0c-.62-.35-1.56-.85-2.77-1.48a.68.68,0,0,0-.08.2v.11c0,.47.7,1.76,2.11,3.91s2.3,3.43,2.73,3.94c2,2.46,4.18,5.08,6.64,7.85h-.08L50,50.06c-5.27-.62-9.29-1.68-12.14-3.16a83.83,83.83,0,0,1-5.62-9.57c-2.39-4.64-3.6-8-3.64-10.23a9,9,0,0,1,1.25-5.46c.28-.36.67-.86,1.21-1.61a47.16,47.16,0,0,1,4.85-5.15,48.54,48.54,0,0,0-.51,5.74l-.08.82v1.29l.16.27.27-.19a25,25,0,0,0,1-3.36,14.93,14.93,0,0,1,1.76-4c.31-.51.47-.79.51-.82a6.07,6.07,0,0,1,3.24-1.76l2.69-.7c.24,0,.55-.12.94-.2A119.53,119.53,0,0,1,61.28,9.06a97.48,97.48,0,0,1-6.84,9A2.66,2.66,0,0,1,52.8,19M37.11,14.18v0l-.12.11Z"/><path class="cls-3" d="M117.51,54.83a79.81,79.81,0,0,1-9.61,1.91,67.6,67.6,0,0,1-9.72.86,52.55,52.55,0,0,1-12.65-1.41,76.09,76.09,0,0,1-8.59-2.81,48.62,48.62,0,0,1-9.49-4.61c-.74-.46-1.41-2-2-4.64l-.12-.59a44.39,44.39,0,0,1-11,7.77,13.41,13.41,0,0,1-4.77.9h-.11l-3.75,0a42.44,42.44,0,0,1-10-1.48l-5.93-1.64,5.89-1.76a112.58,112.58,0,0,0,11.76-4.1L55.07,39A38.88,38.88,0,0,0,59,36.08a29.94,29.94,0,0,0,2.58-2.18l-2.81-2.78c-3.94-3.86-6.6-6.87-7.93-9a43.63,43.63,0,0,1-2.69-4.8l-2.11-7h6.68A25.49,25.49,0,0,1,61,12a40.15,40.15,0,0,1,7.65,3.63l1.64,1-2.58,3.28h-.9c-2.3,0-3.43.31-3.43,1,0,1.06,1.33,3.09,4,6.13l2.34-2.92a32.2,32.2,0,0,1,4.88-5,30.92,30.92,0,0,1,3.48-1.52,22.6,22.6,0,0,1,8-1.1,44.52,44.52,0,0,1,10,.94l2.38.59L97.2,20a27.31,27.31,0,0,1-4.57,5c-2.57,2.31-4.53,3.44-5.85,3.4-.82,0-1.29,0-1.45-.08l-1.21,0a11,11,0,0,0-5.58,1,27.14,27.14,0,0,0-4.26,4.26,5.48,5.48,0,0,0,.82.93q20.57,18,31.63,18h2.77ZM99,55a45.63,45.63,0,0,0,11.28-1.52h-2.69q-11.77,0-32.8-18.43a13.53,13.53,0,0,1-1.91-2.31,26.29,26.29,0,0,1,2.73-3.2A14.65,14.65,0,0,1,78.5,27a13.29,13.29,0,0,1,6.4-1.21c.63,0,2.07.11,2.7.11q1.45,0,4.8-3a21.7,21.7,0,0,0,4-4.49,44.29,44.29,0,0,0-9.6-.9q-5.1,0-7.27.94A11.49,11.49,0,0,1,78,19a4.94,4.94,0,0,0-1.56.7,29.06,29.06,0,0,0-4.53,4.73c-2,2.61-3.28,4.14-3.71,4.57-3.87-4.18-5.82-7.15-5.82-8.87a2.39,2.39,0,0,1,1.92-2.46,13,13,0,0,1,3.28-.27c.39-.47.66-.82.85-1.05a32.88,32.88,0,0,0-7.18-3.4,24,24,0,0,0-7.73-1.6h-4.3c.59,1.87,1.06,3.32,1.37,4.37a41.75,41.75,0,0,0,4.53,7.46c1.25,1.48,3.12,3.47,5.66,5.93l3.95,3.79c0,.55-1.29,1.84-3.83,3.83a42.83,42.83,0,0,1-4.14,3C51.63,42.53,49,43.93,48.94,44A102.28,102.28,0,0,1,37,48.23a43.45,43.45,0,0,0,6,.7c2.89.2,5.08.35,6.52.47a6,6,0,0,1,1.49.19,2.74,2.74,0,0,1-.78,0,2.55,2.55,0,0,1-.55,0,1.78,1.78,0,0,0,.55,0,11.87,11.87,0,0,0,4.1-.7c4.72-2.26,9.72-6.21,14.95-11.87,1,1,1.72,1.68,2.23,2.15,1,1,1.6,1.87,1.6,2.42,0,1-.82,1.56-2.5,1.56A16.77,16.77,0,0,1,68,42.88a18.69,18.69,0,0,0,1.17,3.59,45.08,45.08,0,0,0,9.21,4.45,64,64,0,0,0,8.4,2.73A52.19,52.19,0,0,0,99,55M67.53,41.94a9.78,9.78,0,0,0,2.34.27,2.56,2.56,0,0,0,.51,0c-.16-.15-.32-.35-.51-.54l-1.33-1.29c-.51.55-1,1-1.44,1.52Z"/><path class="cls-3" d="M109.54,40.38q-.06.52,1.29,2.34A43.65,43.65,0,0,1,98.53,48,80.1,80.1,0,0,1,87,50l-6.75-6.17c5.5-.82,9.21-1.67,11.17-2.57a3.54,3.54,0,0,0,1.21-.55c0-.31-.79-1.33-2.5-3q-3.35-3.34-3.87-4l.94-5a50.51,50.51,0,0,1,4.33,4.1C92,33.15,93,34,94.31,35.34l-.82,4.53c0,.08.16.12.36.16.46.11,2-.55,4.6-2a40.09,40.09,0,0,0,4.49-2.78c2.62-1.87,4.07-3.39,4.26-4.53a4.5,4.5,0,0,0-.35-3.24,21.85,21.85,0,0,0-4.06-5L98.1,18a1.13,1.13,0,0,0-.51.54L94.71,33.74C94,33,91.82,31,88.22,27.65c-.27-.27-.39-.47-.35-.66L90.1,14.61,99.27,10l-1.09,5.78a.24.24,0,0,0,.23.12l5.51-3.05a55.17,55.17,0,0,1,4,3.83L114,23.2c2.78,2.93,4.14,5.27,4.14,7.06,0,2-1.25,4-3.71,6.1-.89.74-2.53,2.11-4.92,4"/><path class="cls-3" d="M140.51,42c-11.75,1.91-21.32,4.76-28.62,8.63a19.5,19.5,0,0,0-2.78,1.79l1.45-4.6a30.71,30.71,0,0,1,2-4.46l2.15-2.06c2.89-2.78,5.7-5.31,8.47-7.54,1.41-1.13,4.34-3.24,8.75-6.25.27-.15.78-.47,1.56-.94l4.22-2.34a20,20,0,0,0,3.43-2.11,15.07,15.07,0,0,0-3.51-.5h-4.45c-.12,0-.82,0-2.07.11a60.41,60.41,0,0,0-8.94,1.41l0,.08a6,6,0,0,1-.82-.47,48.55,48.55,0,0,1-7-5.94,63.65,63.65,0,0,1,16.51-2.69l4.42-.12c6.09-.12,10.5.39,13.19,1.52.28.12.9,1.14,1.88,3s1.56,3,1.76,3.59c.07.24.35,1.14.78,2.66a39.82,39.82,0,0,0-6.21-1.37c-1.41.71-2.66,1.37-3.75,2-1.37.82-3.44,2.07-6.17,3.83a72.78,72.78,0,0,0-10,7.93l-.86.89a.19.19,0,0,0,.2.2c.9-.43,1.6-.74,2.07-.94a43.58,43.58,0,0,1,5.5-1.52,51.06,51.06,0,0,1,10.23-1h2.39l0,0v0l.39,0c-1.41,1.71-3.4,4.06-5.94,7l-.35.27m5,0a7.87,7.87,0,0,1-1.57.08,9.92,9.92,0,0,1-1.24,0c.58-.74,2.53-3.09,5.85-7a1.22,1.22,0,0,1,.35-.32l5.08.75c-.9.58-2.38,1.68-4.45,3.24-.7.58-2,1.64-4,3.24"/><path class="cls-3" d="M205.68,8l-7.89,3.47c-5.35,2.35-8.7,4.26-10.07,5.7-1.48,1.61-2.7,4.3-3.59,8.17l0,0v.12A67.31,67.31,0,0,0,182,32.3l-3.87,17.37-1.09.2c-.39,0-.7.07-.94.07-1.79,0-3.79-.93-5.93-2.77a1.76,1.76,0,0,1-.75-1c-.15-.51-.5-1.8-1.05-3.95-1.37-5-2.23-8.12-2.58-9.41l-1.25,2.89h-.15l-1.72,4.69,2.65-.47.51,1.41a29.56,29.56,0,0,1,.78,3.12L167,46l-17.06,6.29c-1.29.47-3.87.7-7.77.7-1.68,0-2.77,0-3.28-.08-.78-.11-1.21-.31-1.25-.66l-.27-2.3,8.12-4h0c3-1.17,5.43-4.84,7.26-11.05l.31-1.13h.2q3-8.85,3.08-10.42c-.11-.75-1.48-1-2.38-1-.43.08-2.18.55-5.19,1.44a4.15,4.15,0,0,0-1.33.71l-.35.31-2.77.23-.24-2.26v-.08a3.34,3.34,0,0,1,.67-1.64,6.5,6.5,0,0,1,1.17-1.76l.19-.19.24-.12a49,49,0,0,1,8.28-4,26.45,26.45,0,0,1,8.94-1.8,13.75,13.75,0,0,1,7.14,2l.78.47.2,1.8L170.58,20l.27,1.09a26.14,26.14,0,0,1,1.09-3.67c.71-2,1.1-3.12,1.21-3.32l0-.08,0-.08A14.05,14.05,0,0,1,176.94,10a8.67,8.67,0,0,1,4.92-1.92ZM163.55,34.29l0-.39-8.32.7c-2.15,6.68-4.88,10.74-8.28,12.18l-7.45,3.16a8,8,0,0,0,3.43.43c3.71,0,6.13-.19,7.23-.62l15.58-5.7a25.67,25.67,0,0,0-.75-2.89,9.4,9.4,0,0,1-1.32.23,1.67,1.67,0,0,1-2-1.75c.66-1.92,1.28-3.67,2-5.35M198,9l-15.19.12a7.13,7.13,0,0,0-4.14,1.68,12.18,12.18,0,0,0-3.08,3.28,23.87,23.87,0,0,0-1.21,3.32,21.54,21.54,0,0,0-.94,3.28l0,.94c1-.2,1.52.66,1.68,2.57a16.24,16.24,0,0,1-.71,4.57L173.35,33l-3.87-13.9,1.17-2.7,0-.47a12.13,12.13,0,0,0-6.21-1.75,25.44,25.44,0,0,0-8.51,1.75,36.46,36.46,0,0,0-7.85,3.75,6.4,6.4,0,0,0-1,1.45,2.73,2.73,0,0,0-.43.74l0,.43.55,0a7.23,7.23,0,0,1,1.87-1c3.16-.89,5-1.4,5.51-1.48a5.55,5.55,0,0,1,2.77.47,2.41,2.41,0,0,1,1.56,2.11q.12,1-3.16,11.13l0,.54,8.35-.74,2.7-6.64.11.16c1.72,6.21,3.4,12.26,5,18.16,1.88,1.6,3.52,2.42,4.92,2.42a3.55,3.55,0,0,0,.63,0l3.55-16.25c.94-3.47,1.64-5.81,2.11-7,1.29-4.5,2.65-7.5,4-9,1.88-2,5.47-4,10.74-6.17M171.79,24.41l.62,2.15a12.42,12.42,0,0,0,.12-1.29,9.41,9.41,0,0,0-.08-1Z"/><path class="cls-3" d="M200.41,43.5a23.45,23.45,0,0,1-3.87,3.75,49,49,0,0,0-5.07,1.64l-3.95,1.91c-1.83,1.18-2.81,2.35-3,3.56,0,.19-.2.62-.39,1.25l-6.91,2.54a68.68,68.68,0,0,0-6.6,3q2.4-3,15.69-18.9c2.07-2.54,4.73-5.54,7.93-9.1.74-.27,1.84-.62,3.28-1-.19.51-.39,1-.62,1.45a4.69,4.69,0,0,0-.47,1.79c0,.9.54,1.37,1.6,1.37.58,0,1.56-.55,3-1.68a14.7,14.7,0,0,1,2.26-1.68,31.56,31.56,0,0,1,3.12,3,.81.81,0,0,1,.08.39c0,.43-.82,1.4-2.46,2.93-.39.39-1.6,1.68-3.59,3.86M214.08,27a7.62,7.62,0,0,1-1.45,3.09A18.17,18.17,0,0,1,211,32.49c-1,.94-2.18,2.11-3.59,3.52a17.5,17.5,0,0,1-3.63-3.17c0-.11,0-.19,0-.23a10.53,10.53,0,0,0,1.95-1.84c.9-1,1.33-1.68,1.33-2,0-.62-.39-.93-1.21-.93s-3.4.74-8,2.18c-1.29.39-2.85.94-4.72,1.64a18.12,18.12,0,0,1-5.59,1.49c-3.4,0-7-1.8-10.81-5.35a26.9,26.9,0,0,1-5.24-6.64c2.7,2.93,5.35,4.41,8,4.41a3.5,3.5,0,0,0,2.19-.59,5.67,5.67,0,0,0,1.13-1.48c.58-.94,1-1.52,1.13-1.72,2.11-2.46,5.27-4.41,9.45-5.93a21.14,21.14,0,0,1,6.79-1.49h2.58c.78,0,2.11,2.27,4,6.8h-6.29c-.16,0-1,.15-1.25.12a17.23,17.23,0,0,0-5.55,1.28c-2.77,1-4.13,2.23-4.13,3.6,0,.19.23.5.66.89a4,4,0,0,0,1.09.67,6.72,6.72,0,0,0,1.6.12,28.88,28.88,0,0,0,7.81-1.61,29.84,29.84,0,0,1,7.85-1.6l5.55.51Zm0-4.8c-3.24-.58-5.51-.94-6.88-1.09a.76.76,0,0,1-.23-.24l-1-4a14.6,14.6,0,0,0-2.1-4.37c1.28-.74,3.51-1.8,6.6-3.2a56.62,56.62,0,0,1,2.14,5.5,23.6,23.6,0,0,1,1.49,6.48Z"/></g></g></svg>