<svg xmlns="http://www.w3.org/2000/svg" viewBox="0 0 58.34 57.87"><defs><style>.cls-1{fill:#98a1a1;}.cls-2{fill:#394d5c;}.cls-3{fill:#5a6470;}.cls-4{fill:#006838;}.cls-5{fill:#8dc63f;}.cls-6{fill:#cfdfe8;}.cls-7{fill:#aabece;}.cls-8{fill:#f9bb4b;}</style></defs><g id="Layer_2" data-name="Layer 2"><g id="Layer_1-2" data-name="Layer 1"><path class="cls-1" d="M45.39,42.53H55a0,0,0,0,1,0,0V56a.92.92,0,0,1-.92.92H46.31a.92.92,0,0,1-.92-.92V42.53A0,0,0,0,1,45.39,42.53Z" transform="translate(-20.47 50.07) rotate(-45)"/><rect class="cls-2" x="44.48" y="48.88" width="3.61" height="2.41" transform="translate(-21.86 47.4) rotate(-45)"/><rect class="cls-2" x="47.51" y="51.27" width="6.73" height="2.41" transform="translate(-22.2 51.35) rotate(-45)"/><rect class="cls-3" x="33.69" y="40.66" width="19.11" height="4.9" transform="translate(-17.82 43.2) rotate(-45)"/><rect class="cls-2" x="39.44" y="40.54" width="7.93" height="4.81" transform="translate(-17.65 43.27) rotate(-45)"/><rect class="cls-4" x="16.22" y="-6.52" width="7.24" height="51.8" rx="3.62" transform="translate(-7.89 19.71) rotate(-45)"/><rect class="cls-5" x="15.77" y="-6.13" width="7.24" height="51.85" rx="3.62" transform="translate(-8.31 19.51) rotate(-45)"/><polygon class="cls-6" points="36.61 46.34 28.73 38.46 36.33 25.66 46.81 36.14 36.61 46.34"/><circle class="cls-7" cx="36.47" cy="36" r="2.31"/><rect class="cls-8" x="40.88" y="26.83" width="4.76" height="4.76" transform="translate(-7.99 39.14) rotate(-45)"/></g></g></svg>