<svg width="38" height="39" viewBox="0 0 38 39" fill="none" xmlns="http://www.w3.org/2000/svg">
<g clip-path="url(#clip0_0_20)">
<path d="M32.2434 6.82397C31.8754 7.85027 31.6809 8.87358 31.6659 9.90287C31.651 10.9322 31.8125 11.9615 32.1536 12.9967L32.2733 13.3528L31.9173 13.2331C30.9029 12.895 29.8826 12.7304 28.8563 12.7424C27.827 12.7574 26.7917 12.9489 25.7445 13.3199L25.3705 13.4515L25.5051 13.0775C25.8732 12.0542 26.0676 11.0279 26.0826 9.99862C26.0976 8.96933 25.936 7.94003 25.5949 6.90476L25.4782 6.54869L25.8343 6.66838C26.8486 7.00649 27.8689 7.17106 28.8952 7.15909C29.9215 7.14413 30.9598 6.95263 32.004 6.58161L32.378 6.44995L32.2434 6.82397ZM37.6412 20.0312C36.6568 20.495 35.795 21.0844 35.056 21.7996C34.3169 22.5147 33.7036 23.3585 33.2128 24.3309L33.0453 24.666L32.8777 24.3309C32.402 23.3734 31.7946 22.5386 31.0585 21.8205C30.3195 21.1024 29.4517 20.507 28.4494 20.0312L28.0903 19.8607L28.4494 19.6931C29.4338 19.2293 30.2955 18.6399 31.0346 17.9248C31.7736 17.2096 32.387 16.3659 32.8777 15.3904L33.0453 15.0553L33.2128 15.3904C33.6916 16.3479 34.296 17.1857 35.0321 17.9008C35.7681 18.6189 36.6358 19.2144 37.6412 19.6931L38.0002 19.8637L37.6412 20.0342V20.0312ZM31.7826 29.8364C31.7976 30.8627 31.9891 31.901 32.3601 32.9452L32.4917 33.3192L32.1177 33.1846C31.0914 32.8166 30.0681 32.6221 29.0388 32.6071C28.0095 32.5922 26.9802 32.7537 25.945 33.0948L25.5889 33.2145L25.7086 32.8585C26.0467 31.8441 26.2113 30.8238 26.1993 29.7975C26.1843 28.7682 25.9928 27.7329 25.6218 26.6857L25.4902 26.3117L25.8642 26.4463C26.8875 26.8144 27.9138 27.0089 28.9431 27.0238C29.9724 27.0388 31.0017 26.8772 32.0369 26.5361L32.393 26.4194L32.2733 26.7755C31.9352 27.7898 31.7706 28.8101 31.7826 29.8364ZM23.5543 34.157C22.5968 34.6358 21.759 35.2402 21.0439 35.9763C20.3258 36.7123 19.7303 37.58 19.2546 38.5854L19.084 38.9444L18.9135 38.5854C18.4497 37.601 17.8602 36.7392 17.1451 36.0002C16.43 35.2611 15.5862 34.6478 14.6138 34.157L14.2787 33.9895L14.6138 33.8219C15.5713 33.3462 16.4061 32.7388 17.1242 32.0027C17.8423 31.2666 18.4377 30.3959 18.9135 29.3936L19.084 29.0345L19.2546 29.3936C19.7184 30.378 20.3048 31.2397 21.0229 31.9788C21.738 32.7178 22.5818 33.3312 23.5573 33.8219L23.8924 33.9895L23.5573 34.157H23.5543ZM12.4954 26.8054C12.1273 27.8287 11.9328 28.855 11.9179 29.8843C11.9029 30.9136 12.0645 31.9429 12.4056 32.9781L12.5223 33.3342L12.1662 33.2145C11.1519 32.8764 10.1316 32.7118 9.10528 32.7238C8.07899 32.7388 7.04072 32.9303 5.99647 33.3013L5.62245 33.4329L5.7571 33.0589C6.12513 32.0326 6.31962 31.0093 6.33458 29.98C6.34954 28.9507 6.18796 27.9214 5.84686 26.8862L5.72717 26.5301L6.08324 26.6498C7.09757 26.9879 8.11788 27.1525 9.14418 27.1405C10.1735 27.1255 11.2087 26.934 12.256 26.563L12.63 26.4314L12.4954 26.8054ZM9.54812 20.1988C8.56371 20.6626 7.70198 21.249 6.96292 21.9671C6.22387 22.6852 5.61048 23.526 5.11977 24.5015L4.95221 24.8366L4.78465 24.5015C4.30591 23.544 3.70151 22.7062 2.96544 21.9911C2.22938 21.2729 1.36166 20.6775 0.356309 20.2018L-0.00274658 20.0312L0.356309 19.8607C1.34072 19.3969 2.20245 18.8074 2.94151 18.0923C3.68056 17.3742 4.29395 16.5334 4.78465 15.558L4.95221 15.2229L5.11977 15.558C5.59552 16.5155 6.20292 17.3503 6.93899 18.0684C7.67505 18.7865 8.54576 19.3819 9.54812 19.8577L9.90717 20.0282L9.54812 20.1988ZM11.7982 10.0914C11.8132 11.1207 12.0047 12.1559 12.3757 13.2032L12.5073 13.5772L12.1333 13.4426C11.11 13.0745 10.0837 12.88 9.05442 12.8651C8.02513 12.8501 6.99584 13.0117 5.96056 13.3528L5.6045 13.4695L5.72418 13.1134C6.06229 12.0991 6.22686 11.0788 6.21489 10.0525C6.19993 9.02618 6.00843 7.98791 5.63741 6.94366L5.50576 6.56964L5.87977 6.70429C6.90607 7.07232 7.92938 7.26681 8.95867 7.28177C9.98796 7.29673 11.0173 7.13515 12.0525 6.79405L12.4086 6.67436L12.2889 7.03043C11.9508 8.04476 11.7862 9.06507 11.7982 10.0914ZM23.3837 6.06696C22.4262 6.54271 21.5914 7.15011 20.8733 7.88618C20.1552 8.62523 19.5598 9.49295 19.084 10.4953L18.9135 10.8544L18.7429 10.4953C18.2791 9.5109 17.6927 8.64917 16.9746 7.91011C16.2565 7.17106 15.4157 6.55767 14.4402 6.06696L14.1051 5.8994L14.4402 5.73184C15.3977 5.2531 16.2355 4.64869 16.9506 3.91263C17.6687 3.17657 18.2642 2.30885 18.7399 1.3035L18.9105 0.944443L19.081 1.3035C19.5448 2.28791 20.1343 3.14964 20.8494 3.88869C21.5675 4.62775 22.4083 5.24114 23.3837 5.73184L23.7188 5.8994L23.3837 6.06696Z" fill="white"/>
</g>
<defs>
<clipPath id="clip0_0_20">
<rect width="38" height="38" fill="white" transform="translate(-0.00012207 0.944458)"/>
</clipPath>
</defs>
</svg>
