<svg width="119" height="120" viewBox="0 0 119 120" fill="none" xmlns="http://www.w3.org/2000/svg">
<g clip-path="url(#clip0_0_44)">
<path d="M118.103 70.52C117.594 73.3724 111.498 75.2142 102.562 75.2142H102.335C98.995 72.494 94.9375 69.7266 90.3703 67.1292C89.0587 66.383 87.7471 65.6746 86.4354 65.0134C87.9075 64.8245 89.3795 64.6073 90.861 64.3523C95.9094 63.4739 100.684 62.246 104.864 60.7914C113.206 63.7478 118.641 67.4881 118.094 70.5105L118.103 70.52ZM111.036 89.6654C110.215 91.0633 108.044 91.3561 106.365 91.3561C103.279 91.3561 99.1649 90.421 94.5883 88.7586C92.8143 85.7834 90.6062 82.6287 88.0396 79.4174C87.9547 79.3135 87.8603 79.2001 87.7754 79.0962C87.5583 78.8223 87.3413 78.5578 87.1148 78.2839C86.794 77.8967 86.4732 77.5094 86.1429 77.1316C85.171 75.9887 84.1802 74.8837 83.1894 73.8258C84.6143 74.1375 86.0674 74.4303 87.5678 74.6853C92.5407 75.5448 97.4947 76.0171 101.958 76.0549C108.771 81.6464 112.583 87.0018 111.026 89.6559L111.036 89.6654ZM79.8584 115.451C79.5942 115.545 79.3017 115.592 78.9997 115.592C76.0179 115.592 71.8187 111.134 67.8461 104.305C68.5633 100.102 68.9596 95.2664 68.9596 90.081C68.9596 88.5981 68.9218 87.1246 68.8558 85.6795C69.7428 86.8224 70.6675 87.9653 71.6489 89.1176C74.0646 91.9511 76.5557 94.558 79.0186 96.8343C79.9528 97.6938 80.8681 98.5155 81.7834 99.2806C83.3498 107.885 82.7836 114.402 79.8584 115.451ZM59.5045 118.993C56.3811 118.993 53.588 113.061 52.0782 104.438C54.2297 100.707 56.2962 96.2959 58.0702 91.4789C58.5892 90.0715 59.061 88.6831 59.5045 87.3135C59.9386 88.6831 60.4198 90.0715 60.9388 91.4789C62.7128 96.2865 64.7793 100.697 66.9308 104.438C65.421 113.061 62.6279 118.993 59.5045 118.993ZM40.0093 115.602C39.7073 115.602 39.4148 115.555 39.1506 115.46C36.2159 114.412 35.6498 107.895 37.2256 99.29C40.5566 96.4943 44.0291 93.0279 47.3507 89.127C48.332 87.9841 49.2568 86.8318 50.1438 85.689C50.0777 87.1246 50.04 88.5886 50.04 90.0904C50.04 95.2758 50.4457 100.112 51.1535 104.315C47.1903 111.144 42.9817 115.602 40.0093 115.602ZM23.2789 105.902C22.4296 105.902 21.7502 105.694 21.2501 105.278C19.5799 103.899 19.8819 100.206 22.0805 95.1436C22.8637 93.3396 23.8545 91.4222 25.0246 89.4482C29.1482 87.9275 33.6304 85.8401 38.0937 83.2993C39.4054 82.5532 40.6793 81.7881 41.9154 81.0136C41.3492 82.3454 40.8114 83.7055 40.2924 85.1128C38.4901 90.0054 37.1879 94.6997 36.3952 98.9028C31.1676 103.266 26.3929 105.902 23.2883 105.902H23.2789ZM12.6349 91.3655C10.9552 91.3655 8.78489 91.0727 7.96394 89.6748C6.40697 87.0113 10.2192 81.6653 17.0321 76.0738C21.486 76.036 26.44 75.5637 31.4223 74.7042C32.9227 74.4397 34.3853 74.1469 35.8102 73.8447C34.8194 74.9025 33.8286 76.0076 32.8567 77.1505C29.554 81.0325 26.6854 85.0089 24.4301 88.7775C19.8441 90.4493 15.7299 91.3844 12.6349 91.3844V91.3655ZM16.4377 75.2237C7.511 75.2237 1.41522 73.3819 0.896224 70.5294C0.35836 67.507 5.78418 63.7667 14.1163 60.8103C18.1928 62.2365 22.9486 63.4644 28.1291 64.3617C29.6106 64.6167 31.0921 64.8434 32.5547 65.0323C31.2431 65.6935 29.9409 66.4019 28.6198 67.148C24.0527 69.7455 20.0045 72.5129 16.6641 75.2331H16.4282L16.4377 75.2237ZM7.96394 31.0107C8.78489 29.6128 10.9552 29.32 12.6349 29.32C15.7205 29.32 19.8347 30.2551 24.4113 31.9175C26.6099 35.5917 29.4596 39.5586 32.8472 43.5445C33.8191 44.6874 34.8099 45.7925 35.8008 46.8503C34.3759 46.5386 32.9133 46.2458 31.4129 45.9908C28.818 45.5374 26.223 45.1974 23.7035 44.9613C21.4011 44.7535 19.1553 44.6402 17.0227 44.6213C10.2098 39.0297 6.39753 33.6837 7.95451 31.0202L7.96394 31.0107ZM21.2501 15.4073C21.7502 14.9917 22.4296 14.7839 23.2789 14.7839C26.3834 14.7839 31.1676 17.4285 36.3952 21.7828C37.1879 25.9859 38.4806 30.6802 40.2924 35.5633C40.8114 36.9707 41.3587 38.3402 41.9154 39.672C40.6887 38.8975 39.4148 38.1324 38.0937 37.3862C33.6399 34.8455 29.1671 32.7675 25.0435 31.2469C20.5802 23.6907 18.8533 17.3813 21.2407 15.4073H21.2501ZM39.1506 5.22536C39.4148 5.13091 39.7073 5.08368 40.0093 5.08368C42.9817 5.08368 47.1903 9.54181 51.1535 16.3612C50.4363 20.5644 50.04 25.4003 50.04 30.5951C50.04 31.0957 50.04 31.5963 50.0494 32.0969C50.0494 32.4464 50.0589 32.7959 50.0777 33.1453C50.0777 33.2776 50.0777 33.4193 50.0872 33.5515C50.0966 34.0426 50.1249 34.5243 50.1438 34.9966C49.2568 33.8537 48.332 32.7109 47.3507 31.5586C44.0291 27.6577 40.5566 24.1913 37.2256 21.3955C35.6498 12.791 36.2159 6.28322 39.1506 5.22536ZM78.9997 5.08368C79.3017 5.08368 79.5847 5.13091 79.8584 5.22536C81.8966 5.95264 82.8969 9.53237 82.5949 15.0295C82.4911 16.9941 82.2174 19.1287 81.8117 21.3766C78.4807 24.1819 74.9893 27.6482 71.6583 31.5586C70.6864 32.7014 69.7617 33.8443 68.8652 34.9966C68.9313 33.5609 68.969 32.0969 68.969 30.5951C68.969 30.0757 68.969 29.5656 68.9596 29.0461C68.9596 28.9895 68.9596 28.9328 68.9596 28.8761C68.9596 28.4511 68.9407 28.0261 68.9313 27.601C68.9218 27.2327 68.903 26.8832 68.8935 26.5243C68.8935 26.4109 68.8935 26.2976 68.8841 26.1937C68.7237 22.6612 68.3745 19.3554 67.865 16.3612C71.8376 9.53237 76.0367 5.08368 79.0186 5.08368H78.9997ZM95.7301 14.7839C96.5699 14.7839 97.2588 15.0011 97.7589 15.4073C100.146 17.3813 98.4289 23.6907 93.9655 31.2469C89.8419 32.7675 85.3786 34.8455 80.9247 37.3862C79.6036 38.1324 78.3297 38.8975 77.103 39.672C77.6692 38.3402 78.2071 36.9707 78.7261 35.5633C80.4812 30.8029 81.8023 26.0898 82.6043 21.7922C87.832 17.4191 92.6256 14.7744 95.7301 14.7744V14.7839ZM106.374 29.32C108.054 29.32 110.224 29.6128 111.045 31.0107C112.13 32.8714 110.564 36.2339 106.752 40.2576C105.393 41.6933 103.798 43.1573 102.015 44.6118C97.5513 44.6496 92.5784 45.1219 87.5961 45.9814C86.0957 46.2364 84.6331 46.5292 83.2177 46.8409C84.2085 45.783 85.1898 44.6779 86.1712 43.5351C89.5588 39.5586 92.4086 35.5917 94.6072 31.908C99.1837 30.2457 103.298 29.3106 106.384 29.3106L106.374 29.32ZM75.4611 60.3381C78.4902 59.3274 81.7456 57.9768 85.0766 56.3427C86.9356 56.56 88.8322 56.8245 90.7289 57.155C95.3715 57.9579 99.7405 59.0724 103.572 60.3475C99.6933 61.6415 95.3243 62.7277 90.7289 63.5211C88.8322 63.8517 86.945 64.1161 85.0766 64.3334C81.7362 62.6994 78.4807 61.3487 75.4517 60.3381H75.4611ZM75.8952 64.8906C75.0176 64.8906 74.1684 64.8718 73.3474 64.834C71.8942 63.7383 70.4788 62.7938 69.1483 62.0099C70.6864 61.7265 72.3377 61.3109 74.0929 60.7725C77.0087 61.6887 80.1887 62.9449 83.463 64.4939C80.8303 64.749 78.2826 64.8812 75.8952 64.8812V64.8906ZM74.4986 65.7218C74.961 65.7313 75.4139 65.7407 75.8952 65.7407C78.7261 65.7407 81.7834 65.5613 84.9256 65.2118C86.5864 66.0335 88.2755 66.9214 89.9457 67.8848C94.0316 70.2083 97.7494 72.7207 100.901 75.2142C96.7775 75.1198 92.267 74.657 87.7376 73.873C85.8221 73.5424 83.9537 73.1552 82.142 72.7302C79.5659 70.0666 76.9709 67.7053 74.4892 65.7407L74.4986 65.7218ZM93.2578 88.2675C89.4739 86.8035 85.4069 84.8672 81.3493 82.5626C79.6602 81.6086 78.0372 80.6074 76.4897 79.5968C74.9893 76.2154 73.3757 73.1363 71.7244 70.4633C74.6685 71.5873 78.0372 72.6168 81.7173 73.4858C82.9912 74.8175 84.2557 76.2154 85.5013 77.6794C88.5303 81.2403 91.1535 84.8578 93.2578 88.258V88.2675ZM72.3189 88.5792C71.0733 87.1152 69.8938 85.6323 68.7803 84.1588C68.5538 80.5319 68.1103 77.0844 67.4875 73.9864C69.856 76.036 72.6586 78.1328 75.7914 80.173C76.5368 81.8542 77.2351 83.6016 77.9051 85.3962C79.5187 89.7693 80.736 94.0574 81.5286 97.9677C81.2738 97.7505 81.0285 97.5238 80.7643 97.2971C77.9712 94.7941 75.0931 91.8472 72.3094 88.5792H72.3189ZM57.438 74.5625C58.2778 72.9568 58.9761 71.4362 59.5139 70.0099C60.0518 71.4362 60.7501 72.9568 61.5899 74.5625C61.1841 77.5378 60.4953 80.8341 59.5139 84.3005C58.542 80.8341 57.8437 77.5283 57.438 74.5625ZM52.6349 72.9946C53.5219 72.1918 54.3429 71.3795 55.0978 70.5861C55.4752 70.1894 55.8244 69.8021 56.1546 69.4243C56.1641 70.945 56.2962 72.6168 56.5227 74.402C55.1072 77.0561 53.3144 79.9274 51.1912 82.8554C51.4743 79.2662 51.9744 75.9226 52.6255 72.9946H52.6349ZM51.5215 73.9769C50.9081 77.0277 50.4646 80.4563 50.2381 84.1683C49.1341 85.6323 47.9546 87.1152 46.6996 88.5792C43.6705 92.14 40.5189 95.3325 37.4898 97.9677C38.2825 94.0574 39.4903 89.7693 41.1039 85.3962C41.7739 83.5921 42.4721 81.8448 43.2176 80.173C46.2938 78.1611 49.1058 76.0643 51.512 73.9864L51.5215 73.9769ZM48.6529 69.9249C50.3419 69.2354 51.8706 68.4987 53.2106 67.7525C52.6916 69.1882 52.2292 70.8128 51.8234 72.579C49.5399 74.6286 46.8505 76.7066 43.8876 78.709C45.3974 75.4409 47.0204 72.4657 48.6529 69.9249ZM47.3035 70.4539C45.6521 73.1269 44.0291 76.2154 42.5382 79.5968C40.9812 80.6074 39.3582 81.5992 37.6786 82.5532C33.6115 84.8672 29.5351 86.8035 25.7418 88.2675C27.8838 84.8106 30.5259 81.2025 33.5266 77.6794C34.7816 76.2154 36.0461 74.8175 37.3105 73.4858C40.9907 72.6168 44.3594 71.5873 47.3035 70.4539ZM45.9447 65.6746C46.1617 65.6652 46.3693 65.6557 46.5863 65.6463C47.2752 65.6085 47.9451 65.5518 48.5868 65.4951C49.4549 65.4101 50.2853 65.3062 51.0685 65.174C50.0872 66.3452 49.0964 67.6959 48.115 69.2071C45.2841 70.35 42.0098 71.4173 38.4523 72.3335C41.0001 69.7644 43.5479 67.5164 45.9541 65.684L45.9447 65.6746ZM43.1327 65.7407C43.6045 65.7407 44.0669 65.7407 44.5292 65.7218C42.0475 67.6864 39.462 70.0477 36.8859 72.7113C35.0742 73.1363 33.2058 73.5236 31.2902 73.8541C26.7609 74.6381 22.2409 75.1009 18.1173 75.2048C21.2784 72.7113 24.9869 70.1988 29.0727 67.8753C30.7524 66.9214 32.432 66.0241 34.0928 65.2023C37.2351 65.5518 40.2924 65.7313 43.1232 65.7313L43.1327 65.7407ZM15.4846 60.3475C19.3063 59.0724 23.6658 57.9673 28.299 57.1645C30.1956 56.8339 32.0829 56.56 33.9418 56.3522C37.2822 57.9862 40.5377 59.3274 43.5667 60.3475C40.5377 61.3581 37.2822 62.7088 33.9418 64.3428C32.0829 64.1256 30.1956 63.8611 28.299 63.5305C23.6658 62.7277 19.3063 61.6226 15.4846 60.3475ZM16.4565 45.4619C16.532 45.4619 16.6169 45.4619 16.6924 45.4619C20.0329 48.1821 24.0904 50.9401 28.6481 53.5375C29.9597 54.2837 31.2714 54.9826 32.583 55.6532C31.1204 55.8422 29.6389 56.0594 28.1574 56.3144C22.9769 57.2117 18.2211 58.449 14.1447 59.8658C5.78418 56.9095 0.348924 53.1786 0.896224 50.1467C1.02833 49.4005 1.54732 48.7299 2.38714 48.1349C4.7745 46.4536 9.83231 45.443 16.4377 45.443L16.4565 45.4619ZM31.2902 46.8314C33.2058 47.162 35.0742 47.5493 36.8859 47.9743C39.462 50.6473 42.0475 52.9991 44.5292 54.9637C44.0763 54.9543 43.6139 54.9449 43.1327 54.9449C40.2924 54.9449 37.2445 55.1243 34.1022 55.4738C32.4415 54.6521 30.7618 53.7642 29.0822 52.8008C24.9963 50.4773 21.2784 47.9649 18.1267 45.4713C19.9102 45.5091 21.7597 45.6225 23.6564 45.8019C26.1475 46.0286 28.7236 46.3781 31.2902 46.822V46.8314ZM47.3035 50.2317C44.3594 49.0983 40.9907 48.0688 37.3105 47.1998C36.0367 45.8775 34.7722 44.4701 33.5266 43.0061C30.4976 39.4453 27.8743 35.8278 25.7701 32.4275C29.554 33.8915 33.621 35.8278 37.6786 38.1324C39.3676 39.0958 40.9907 40.0876 42.5382 41.0888C44.0386 44.4701 45.6521 47.5587 47.3035 50.2317ZM51.8329 48.1443C52.2386 49.9011 52.701 51.5068 53.2106 52.9425C51.8612 52.1963 50.3419 51.469 48.6529 50.7701C47.0204 48.2388 45.4068 45.2635 43.897 41.9955C46.9072 44.0357 49.587 46.123 51.8329 48.1443ZM51.5215 46.6992C49.153 44.659 46.3599 42.5622 43.2176 40.522C42.4816 38.8408 41.7739 37.0934 41.1039 35.2989C39.4903 30.9257 38.273 26.6376 37.4898 22.7273C40.5189 25.3625 43.6705 28.555 46.6996 32.1158C47.9451 33.5798 49.1247 35.0627 50.2381 36.5267C50.4646 40.2292 50.9081 43.6579 51.5215 46.6992ZM51.8706 17.608C53.805 21.1122 55.6734 25.1547 57.2776 29.4995C57.9475 31.3035 58.5326 33.0887 59.061 34.836C57.9947 38.3874 57.2209 41.7594 56.7397 44.8291C55.2205 42.1088 53.3238 39.1997 51.0874 36.2245C50.9742 34.4016 50.9176 32.522 50.9176 30.6046C50.9176 25.967 51.2667 21.5372 51.8706 17.608ZM67.5158 46.6992C68.1292 43.6579 68.5727 40.2198 68.7992 36.5173C69.9032 35.0438 71.0922 33.5704 72.3283 32.1158C75.3668 28.5455 78.5279 25.3531 81.5664 22.7084C80.7643 26.6754 79.5281 30.9635 77.924 35.2989C77.2634 37.0934 76.5557 38.8408 75.8103 40.522C72.6774 42.5622 69.8843 44.659 67.5158 46.6992ZM70.3844 50.7701C68.6954 51.469 67.1667 52.1963 65.8173 52.9425C65.9022 52.6969 65.9966 52.4513 66.0721 52.1963C66.4873 50.959 66.8647 49.5989 67.195 48.1443C69.4408 46.123 72.1301 44.0357 75.1309 41.9955C73.6211 45.2541 71.998 48.2293 70.375 50.7606L70.3844 50.7701ZM71.7244 50.2411C73.3757 47.5682 74.9893 44.489 76.4897 41.1076C78.0372 40.097 79.6602 39.1053 81.3493 38.1419C85.4069 35.8372 89.4739 33.901 93.2578 32.437C91.1535 35.8372 88.5303 39.4547 85.5013 43.0156C84.2557 44.4796 82.9818 45.8869 81.7173 47.2092C78.0372 48.0782 74.6685 49.1077 71.7244 50.2411ZM73.0926 55.0204C71.2148 55.1054 69.4974 55.2754 67.9688 55.521C68.9501 54.3498 69.9409 52.9991 70.9223 51.4879C73.7532 50.3356 77.0275 49.2683 80.585 48.3616C78.0372 50.9306 75.4894 53.1786 73.0832 55.011L73.0926 55.0204ZM75.8952 54.9543C75.4234 54.9543 74.961 54.9543 74.4986 54.9732C76.9804 53.0086 79.5659 50.6567 82.1514 47.9837C83.9537 47.5587 85.8221 47.1715 87.7471 46.8409C92.2859 46.0475 96.8058 45.5941 100.948 45.4902C97.74 48.0121 94.0033 50.5151 89.9551 52.8197C88.2755 53.7737 86.5958 54.6709 84.9351 55.4927C81.7928 55.1432 78.7449 54.9637 75.9046 54.9637L75.8952 54.9543ZM69.1483 58.6757C70.4788 57.9012 71.8942 56.9472 73.3474 55.8516C74.1684 55.8233 75.0176 55.8044 75.8857 55.8044C78.2731 55.8044 80.8303 55.9366 83.463 56.1916C80.1792 57.7406 77.0087 58.9968 74.0929 59.9225C72.3472 59.3841 70.6864 58.9685 69.1483 58.6852V58.6757ZM65.7513 60.357C66.459 60.083 67.195 59.743 67.9593 59.3369C69.3936 59.5447 70.9506 59.8941 72.6114 60.357C70.9506 60.8198 69.3936 61.1598 67.9593 61.377C67.195 60.9709 66.4495 60.6309 65.7513 60.357ZM67.9688 65.1834C69.4974 65.4385 71.2148 65.6085 73.0926 65.684C75.4989 67.5164 78.0372 69.7644 80.5944 72.3335C77.037 71.4267 73.7626 70.3594 70.9317 69.2071C69.9504 67.6959 68.9596 66.3452 67.9782 65.174L67.9688 65.1834ZM65.3266 66.4963C64.9964 65.6935 64.6472 64.9756 64.2981 64.3145C65.0152 64.5506 65.7984 64.7584 66.6571 64.9379C67.5913 65.9863 68.5444 67.2142 69.4974 68.6026C67.9405 67.9131 66.5439 67.2047 65.3361 66.4869L65.3266 66.4963ZM66.308 69.2449C66.1476 68.7254 65.9777 68.2342 65.8173 67.762C67.1573 68.5082 68.6954 69.2449 70.3844 69.9438C72.0169 72.4846 73.6305 75.4504 75.1403 78.7184C72.1301 76.6782 69.4408 74.5909 67.195 72.5696C66.9308 71.3984 66.6288 70.3027 66.3174 69.2543L66.308 69.2449ZM62.8449 68.0831C62.8072 67.2142 62.7317 66.4113 62.6185 65.6746C63.2129 66.1374 63.8829 66.6097 64.6284 67.0725C64.9303 67.8186 65.2134 68.6215 65.4776 69.4905C65.6758 70.1327 65.8645 70.8033 66.0438 71.4928C64.8076 70.3216 63.7319 69.1693 62.8449 68.0831ZM62.4958 74.4208C62.7223 72.6357 62.8449 70.9639 62.8638 69.4432C63.8735 70.605 65.0624 71.814 66.4118 73.0418C67.0818 76.0171 67.5536 79.3512 67.8367 82.8932C65.7135 79.9557 63.9112 77.0844 62.5052 74.4208H62.4958ZM57.4097 64.7962C57.6833 64.5317 57.9287 64.2767 58.1551 64.0217C58.1551 64.3523 58.174 64.7017 58.2117 65.0701C57.9192 65.6368 57.5418 66.2319 57.1077 66.8552C57.1738 66.1091 57.2681 65.4196 57.4097 64.8056V64.7962ZM55.9848 63.8328C56.3245 63.6817 56.6548 63.5211 56.9473 63.3605C56.8341 63.6722 56.7303 64.0122 56.6453 64.3712C56.1641 64.7962 55.6168 65.2307 54.9846 65.6651C55.3054 64.9851 55.6357 64.3806 55.9848 63.8422V63.8328ZM54.7203 64.3145C54.3523 64.9662 54.0126 65.7029 53.6824 66.4963C52.4745 67.2142 51.0685 67.9226 49.5116 68.6121C50.4646 67.2236 51.4177 65.9957 52.3519 64.9473C53.2106 64.7679 54.0032 64.5601 54.7203 64.3145ZM51.0497 59.3369C51.814 59.743 52.5595 60.083 53.2577 60.357C52.55 60.6309 51.814 60.9709 51.0497 61.377C49.6154 61.1692 48.0584 60.8292 46.3976 60.357C48.0584 59.8941 49.6154 59.5447 51.0497 59.3369ZM49.8607 58.6757C48.3226 58.9591 46.6713 59.3746 44.9256 59.913C42.0098 58.9968 38.8298 57.7312 35.546 56.1822C38.1787 55.9272 40.7265 55.7949 43.1232 55.7949C44.0008 55.7949 44.8501 55.8138 45.6616 55.8422C47.1148 56.9378 48.5302 57.8823 49.8607 58.6663V58.6757ZM51.9555 56.5694C52.5311 57.2023 53.1068 57.7595 53.6635 58.2507C52.8803 58.2696 52.0499 58.3451 51.1629 58.4679C49.9079 57.7879 48.5679 56.9472 47.1714 55.946C48.936 56.0688 50.5401 56.2766 51.9555 56.5694ZM48.0867 51.4974C49.0681 53.0086 50.0683 54.3593 51.0402 55.5305C49.5116 55.2754 47.7942 55.1149 45.9258 55.0299C43.5196 53.1975 40.9718 50.9495 38.424 48.3804C41.9815 49.2872 45.2558 50.3545 48.0867 51.5068V51.4974ZM56.1452 51.2707C55.145 50.1184 53.9654 48.9188 52.6161 47.6909C51.965 44.7629 51.4743 41.4288 51.1818 37.8396C53.2955 40.7676 55.0978 43.639 56.5132 46.2931C56.2773 48.0876 56.1546 49.75 56.1452 51.2707ZM59.0516 51.9791C58.7779 52.8102 58.5703 53.5847 58.4193 54.312C58.023 53.6698 57.5606 53.018 57.0228 52.338C56.9945 50.9495 57.07 49.4005 57.2492 47.7287C57.9947 49.24 58.6081 50.6756 59.061 51.9885L59.0516 51.9791ZM61.5805 46.1514C61.0237 47.2092 60.533 48.2482 60.099 49.2494C59.8819 49.75 59.6932 50.2317 59.5139 50.6945C58.9761 49.2683 58.2778 47.7476 57.438 46.1325C57.8437 43.1573 58.5326 39.8609 59.5139 36.3945C60.4953 39.8609 61.1841 43.1667 61.5899 46.1419L61.5805 46.1514ZM62.2882 44.8574C61.8069 41.7877 61.0332 38.4063 59.9574 34.8455C60.4859 33.0981 61.0803 31.3035 61.7409 29.509C63.345 25.1642 65.204 21.1216 67.1478 17.6175C67.7612 21.5467 68.1009 25.9764 68.1009 30.614C68.1009 32.5314 68.0443 34.411 67.9216 36.2339C65.7324 39.1619 63.8168 42.0805 62.2693 44.8479L62.2882 44.8574ZM66.3929 47.7004C65.053 48.9188 63.864 50.1184 62.8732 51.2801C62.8544 49.7594 62.7317 48.0782 62.4958 46.2836C63.9301 43.5823 65.7324 40.7298 67.8272 37.8396C67.5441 41.4382 67.044 44.7818 66.3929 47.7098V47.7004ZM64.6284 53.6603C63.8829 54.1137 63.2129 54.5859 62.6185 55.0488C62.7317 54.3026 62.8072 53.4997 62.8449 52.6402C63.7225 51.554 64.7982 50.4206 66.0155 49.2494C65.9683 49.4383 65.9211 49.6272 65.8739 49.8067C65.4965 51.214 65.0813 52.508 64.6284 53.6509V53.6603ZM64.2887 56.4089C64.6567 55.7571 64.9964 55.0299 65.3266 54.227C66.5345 53.5092 67.931 52.7914 69.488 52.1113C68.535 53.4997 67.5819 54.7371 66.6571 55.776C65.7984 55.9555 65.0058 56.1633 64.2887 56.4089ZM64.0339 58.279C63.6564 58.3073 63.2884 58.3451 62.9582 58.4018C63.1657 58.1562 63.3733 57.8823 63.5715 57.599C64.166 57.3534 64.8454 57.1361 65.5814 56.9283C65.053 57.4478 64.534 57.9012 64.0339 58.279ZM65.3455 58.2696C65.9117 57.7784 66.4779 57.2117 67.0535 56.5883C68.4689 56.2955 70.0731 56.0877 71.8376 55.9649C70.4411 56.9567 69.1011 57.8068 67.8461 58.4868C66.9591 58.364 66.1193 58.2885 65.3455 58.2696ZM64.2981 59.8847C63.9961 59.7997 63.7036 59.7336 63.4205 59.6863C63.713 59.5258 63.9961 59.3369 64.2887 59.1196C64.5057 59.1102 64.7227 59.1102 64.9303 59.1102C65.4116 59.1102 65.9306 59.1385 66.459 59.1857C65.7701 59.4974 65.1096 59.7525 64.4868 59.9414C64.4302 59.9225 64.3642 59.9036 64.3075 59.8847H64.2981ZM65.3455 62.4821C66.1287 62.4632 66.9591 62.3877 67.8461 62.2649C69.1011 62.9355 70.4411 63.7856 71.8376 64.7867C70.0731 64.664 68.4689 64.4467 67.0535 64.1634C66.4779 63.5305 65.9022 62.9638 65.3455 62.4821ZM62.9676 62.3499C63.3073 62.4066 63.6564 62.4349 64.0339 62.4632C64.534 62.841 65.053 63.2944 65.5814 63.8139C64.8454 63.6155 64.1754 63.3983 63.5809 63.1527C63.3828 62.8599 63.1752 62.5955 62.9676 62.3499ZM62.0617 63.3794C62.3542 63.54 62.6751 63.7006 63.0148 63.8517C63.3639 64.3806 63.6942 64.9945 64.0244 65.6746C63.4017 65.2496 62.8449 64.8151 62.3731 64.39C62.2882 64.0311 62.1844 63.7006 62.0711 63.3794H62.0617ZM60.8067 65.1079C60.8444 64.7395 60.8633 64.3806 60.8728 64.0406C61.0992 64.2956 61.3351 64.5601 61.6182 64.8151C61.7598 65.4385 61.8541 66.128 61.9202 66.8741C61.4767 66.2602 61.1087 65.6652 60.8161 65.0984L60.8067 65.1079ZM54.994 62.4632C55.3714 62.4349 55.7395 62.3971 56.0697 62.3404C55.8621 62.586 55.664 62.8599 55.4658 63.1433C54.8713 63.3889 54.1919 63.6155 53.4559 63.8139C53.9843 63.2944 54.5033 62.841 55.0034 62.4632H54.994ZM53.6824 62.4821C53.1162 62.9638 52.55 63.5305 51.9744 64.1634C50.559 64.4467 48.9548 64.6545 47.1903 64.7867C48.5868 63.7856 49.9268 62.9355 51.1818 62.2649C52.0688 62.3877 52.9086 62.4632 53.6824 62.4821ZM55.6073 61.0653C55.3243 61.2354 55.0317 61.4148 54.7392 61.6321C54.5222 61.6415 54.3052 61.6509 54.0976 61.6509C53.6163 61.6509 53.0973 61.6226 52.5689 61.5754C53.2577 61.2637 53.9277 61.0087 54.5411 60.8103C54.9091 60.9237 55.2582 60.9992 55.6073 61.0653ZM54.7392 59.1196C55.0317 59.3369 55.3243 59.5258 55.6073 59.6863C55.2676 59.7525 54.9091 59.8375 54.5411 59.9414C53.9183 59.7525 53.2577 59.4974 52.5689 59.1857C53.0973 59.1385 53.6163 59.1102 54.0976 59.1102C54.3052 59.1102 54.5222 59.1102 54.7392 59.1196ZM55.4564 57.599C55.6545 57.8918 55.8621 58.1562 56.0697 58.4018C55.73 58.3451 55.3809 58.3073 55.0034 58.279C54.5033 57.9012 53.9843 57.4478 53.4559 56.9283C54.1919 57.1267 54.8619 57.3439 55.4564 57.599ZM53.7012 54.2365C53.7012 54.2365 53.7107 54.2742 53.7201 54.2931C53.7484 54.3498 53.7673 54.4065 53.7956 54.4632C53.8616 54.6143 53.9183 54.7465 53.9843 54.8882C54.2297 55.436 54.4844 55.946 54.7392 56.4089C54.0221 56.1727 53.2294 55.9649 52.3707 55.776C51.446 54.7276 50.4929 53.4997 49.5399 52.1113C51.0968 52.8008 52.5028 53.5092 53.7107 54.227L53.7012 54.2365ZM58.1551 56.7017C57.9381 56.4466 57.6927 56.1822 57.4191 55.9272C57.2776 55.3038 57.1738 54.6143 57.1077 53.8681C57.5512 54.482 57.9098 55.0676 58.2117 55.6344C58.174 56.0122 58.1551 56.3616 58.1457 56.7017H58.1551ZM59.9386 55.4927C59.7687 55.8233 59.6272 56.1538 59.5139 56.475C59.4007 56.1633 59.2592 55.8421 59.0987 55.5116C59.1837 54.8787 59.3252 54.1987 59.5234 53.462C59.7215 54.1892 59.8631 54.8693 59.948 55.5021L59.9386 55.4927ZM61.6088 55.9272C61.3351 56.1916 61.0898 56.4466 60.8633 56.7111C60.8633 56.3711 60.8444 56.0216 60.7973 55.6438C61.0992 55.0771 61.4672 54.482 61.9013 53.8681C61.8352 54.6143 61.7314 55.3038 61.5993 55.9272H61.6088ZM63.0336 56.8906C62.6845 57.0417 62.3637 57.2023 62.0617 57.3723C62.1749 57.0606 62.2787 56.7206 62.3637 56.3616C62.8449 55.9366 63.3922 55.5021 64.0244 55.0771C63.7036 55.7571 63.3733 56.3616 63.0336 56.9V56.8906ZM56.6642 56.3616C56.7491 56.7206 56.8529 57.0511 56.9662 57.3723C56.6736 57.2023 56.3528 57.0511 56.0131 56.9C55.664 56.3711 55.3337 55.7571 55.0034 55.0771C55.6262 55.5021 56.183 55.9366 56.6548 56.3616H56.6642ZM64.2981 61.6226C64.0056 61.4054 63.7131 61.2259 63.43 61.0559C63.7697 60.9898 64.1282 60.9142 64.4963 60.8009C65.119 60.9898 65.7796 61.2448 66.4684 61.5659C65.94 61.6132 65.421 61.6415 64.9398 61.6415C64.7322 61.6415 64.5246 61.6415 64.2981 61.6226ZM62.0051 52.338C61.4672 53.018 60.9954 53.6886 60.5991 54.3215C60.4481 53.5847 60.2405 52.8008 59.9669 51.9791C60.2311 51.2234 60.533 50.4301 60.9011 49.5894C61.1653 48.9755 61.4672 48.3427 61.7786 47.7004C61.9579 49.3816 62.0334 50.9495 62.0051 52.3474V52.338ZM56.183 52.6402C56.2113 53.4997 56.2868 54.3026 56.4 55.0488C55.8055 54.5859 55.1355 54.1137 54.3995 53.6603C53.89 52.3663 53.4181 50.8834 53.003 49.2494C54.2202 50.4206 55.296 51.554 56.183 52.6402ZM59.4573 67.0725C59.2875 66.4302 59.1648 65.8257 59.0893 65.259C59.2592 64.9284 59.4007 64.5978 59.5139 64.2767C59.6366 64.5978 59.7687 64.919 59.9386 65.2496C59.8536 65.8824 59.7121 66.5624 59.5139 67.2897C59.4951 67.2142 59.4762 67.148 59.4573 67.0725ZM61.7786 73.0041C61.0332 71.4928 60.4292 70.0666 59.9669 68.7443C60.2405 67.9226 60.4481 67.1386 60.5991 66.4019C60.9954 67.0441 61.4672 67.7053 62.0051 68.3948C62.0334 69.7833 61.9579 71.3323 61.7786 73.0041ZM35.5554 64.5317C38.8392 62.9827 42.0098 61.7265 44.935 60.8103C46.6807 61.3487 48.3415 61.7643 49.8701 62.0476C48.5396 62.8316 47.1242 63.7761 45.671 64.8623C44.8501 64.9001 44.0103 64.919 43.1327 64.919C40.7453 64.919 38.1881 64.7868 35.5554 64.5317ZM54.475 70.0383C54.0126 70.5294 53.5125 71.0206 52.9935 71.5212C53.4087 69.8777 53.8805 68.3854 54.3901 67.0819C55.1355 66.6191 55.7961 66.1563 56.3906 65.684C56.2773 66.4302 56.2018 67.2331 56.1641 68.102C55.664 68.7254 55.0978 69.3771 54.4656 70.0383H54.475ZM57.0322 68.4043C57.5701 67.7242 58.0419 67.0536 58.4382 66.4208C58.5892 67.1575 58.7968 67.932 59.0704 68.7537C58.6175 70.0666 58.0041 71.5023 57.2587 73.0135C57.0794 71.3417 57.0039 69.7927 57.0322 68.4043ZM64.1094 6.33989C64.1471 6.4249 64.1849 6.5099 64.232 6.60436C64.2792 6.70825 64.3264 6.81215 64.3736 6.91605C65.421 9.3718 66.2986 12.5737 66.9497 16.2668C64.8076 19.9976 62.7411 24.4085 60.9577 29.2161C60.4387 30.6235 59.9574 32.0214 59.5234 33.3909C59.0893 32.0214 58.6081 30.6329 58.0891 29.2161C56.3151 24.4085 54.2485 19.9976 52.0971 16.2668C53.6069 7.65277 56.4 1.71175 59.5234 1.71175C59.6649 1.71175 59.797 1.72119 59.9386 1.74953C61.4012 2.00455 62.8544 3.61968 64.1188 6.33989H64.1094ZM51.0874 84.4989C53.3238 81.5236 55.2299 78.6145 56.7397 75.8943C57.2209 78.9545 57.9947 82.3265 59.0704 85.8873C58.542 87.6347 57.9475 89.4293 57.287 91.2238C55.6828 95.5686 53.8239 99.6206 51.88 103.115C51.2761 99.1861 50.927 94.7563 50.927 90.1188C50.927 88.2014 50.9836 86.3218 51.0968 84.4989H51.0874ZM68.1198 90.1188C68.1198 94.7563 67.7706 99.1861 67.1667 103.115C65.2323 99.6206 63.3639 95.5686 61.7598 91.2238C61.0898 89.4198 60.5047 87.6347 59.9763 85.8873C61.0426 82.3359 61.8164 78.964 62.2976 75.8943C63.8168 78.6145 65.7135 81.5236 67.9593 84.5083C68.0631 86.3407 68.1198 88.2108 68.1198 90.1188ZM98.1741 98.525C98.2118 98.6572 98.2496 98.7894 98.2873 98.9122C98.3345 99.0917 98.3911 99.2806 98.4383 99.4601C98.4383 99.4789 98.4383 99.4978 98.4477 99.5073C99.0611 102.057 98.9478 103.965 98.0608 105.004C97.9759 105.108 97.8721 105.203 97.7683 105.297C97.2682 105.713 96.5888 105.921 95.7395 105.921C92.635 105.921 87.8509 103.276 82.6232 98.9217C81.84 94.7186 80.5378 90.0243 78.7261 85.1317C78.2071 83.7244 77.6598 82.3643 77.103 81.0325C78.3297 81.7975 79.6036 82.572 80.9247 83.3182C85.3786 85.8495 89.8419 87.9369 93.9655 89.4576C95.8905 92.7256 97.3154 95.7575 98.108 98.3077C98.1269 98.3739 98.1552 98.4494 98.1741 98.525ZM102.581 45.4902C111.507 45.4902 117.603 47.332 118.122 50.1939C118.5 52.3002 115.858 54.9449 110.875 57.4289C109.101 58.3168 107.101 59.148 104.93 59.9225C100.845 58.4963 96.0698 57.2684 90.8799 56.3616C89.3984 56.1066 87.9169 55.8799 86.4543 55.7005C87.7659 55.0299 89.0681 54.3309 90.3892 53.5847C94.8337 51.0534 98.9101 48.286 102.335 45.5091C102.42 45.5091 102.505 45.5091 102.59 45.5091L102.581 45.4902ZM106.176 60.3664C108.016 59.6863 109.724 58.9496 111.262 58.1846C116.688 55.4738 119.424 52.5836 118.962 50.0428C118.377 46.7559 112.555 44.7535 103.345 44.6496C104.836 43.3839 106.195 42.1183 107.374 40.8715C111.526 36.4984 113.102 32.862 111.791 30.6235C110.97 29.2162 109.148 28.5078 106.374 28.5078C103.421 28.5078 99.5518 29.3295 95.2583 30.8124C99.5989 23.1996 100.977 16.9941 98.3156 14.7933C97.6551 14.255 96.7869 13.9716 95.7395 13.9716C92.6161 13.9716 87.9452 16.4462 82.8402 20.5738C83.1611 18.647 83.3687 16.8241 83.4725 15.105C83.8027 9.12622 82.6326 5.34815 80.1698 4.4603C79.8112 4.32806 79.4243 4.26195 79.0186 4.26195C75.8574 4.26195 71.6395 8.46506 67.6385 15.0956C67.0252 11.9126 66.2325 9.12622 65.2983 6.89716C65.2889 6.85938 65.27 6.8216 65.2606 6.79326C65.1851 6.62325 65.1096 6.46268 65.0436 6.29267C64.9775 6.16043 64.9209 6.0282 64.8643 5.89597C64.8548 5.86763 64.836 5.84874 64.8265 5.82041C63.2884 2.59959 61.4672 0.871124 59.5328 0.871124C56.0508 0.871124 53.0596 6.5099 51.4177 15.105C47.4073 8.4745 43.1893 4.27139 40.0376 4.27139C39.6319 4.27139 39.245 4.33751 38.8864 4.46974C35.612 5.64095 34.7628 11.9409 36.1971 20.5644C31.0921 16.4462 26.4212 13.9811 23.3072 13.9811C22.2598 13.9811 21.3822 14.255 20.7311 14.8028C18.0607 17.0035 19.4478 23.209 23.7885 30.8218C19.4855 29.3389 15.6356 28.5172 12.6726 28.5172C9.9078 28.5172 8.07718 29.2256 7.25623 30.6329C5.51996 33.6082 8.96418 38.9636 15.6828 44.659C10.1343 44.7252 5.82192 45.4713 3.14204 46.7842C1.37747 47.6437 0.320615 48.7488 0.08471 50.0522C-0.519207 53.4242 4.57634 57.2967 12.8519 60.3853C4.5386 63.4172 -0.556952 67.2897 0.0469652 70.6711C0.641446 73.958 6.44471 75.951 15.645 76.0643C8.92644 81.7598 5.47278 87.1152 7.21848 90.0904C8.03943 91.4978 9.86062 92.2061 12.6349 92.2061C15.5978 92.2061 19.4667 91.375 23.7696 89.8921C22.7977 91.5922 21.9673 93.2357 21.2879 94.8036C18.9005 100.32 18.6929 104.258 20.6934 105.921C21.3539 106.468 22.222 106.742 23.2695 106.742C26.3834 106.742 31.0543 104.277 36.1593 100.159C34.725 108.782 35.5743 115.082 38.8486 116.254C39.2167 116.386 39.5941 116.452 39.9999 116.452C43.1516 116.452 47.3695 112.249 51.3799 105.618C53.0218 114.204 56.0131 119.843 59.4951 119.843C62.977 119.843 65.9683 114.204 67.6102 105.618C71.6112 112.249 75.8386 116.452 78.9903 116.452C79.396 116.452 79.7829 116.386 80.1415 116.254C83.4158 115.082 84.2651 108.782 82.8308 100.159C87.9264 104.277 92.5973 106.742 95.7207 106.742C96.7775 106.742 97.6456 106.468 98.2967 105.921C99.8726 104.617 100.071 101.897 98.929 98.1094C98.9007 97.996 98.8629 97.8922 98.8346 97.7788C98.8063 97.6938 98.7686 97.5993 98.7402 97.5049C97.9948 95.2381 96.8153 92.6595 95.2394 89.8921C99.5329 91.375 103.392 92.2061 106.355 92.2061C109.12 92.2061 110.951 91.4978 111.772 90.0904C113.508 87.1152 110.064 81.7598 103.345 76.0643C112.545 75.951 118.358 73.958 118.943 70.6711C119.547 67.2897 114.442 63.4172 106.157 60.3286L106.176 60.3664Z" fill="white"/>
</g>
<defs>
<clipPath id="clip0_0_44">
<rect width="119" height="119" fill="white" transform="translate(-0.000244141 0.833344)"/>
</clipPath>
</defs>
</svg>
